<svg width="694" height="534" viewBox="0 0 694 534" fill="none" xmlns="http://www.w3.org/2000/svg">
<path d="M109.582 501.534C108.734 502.241 107.144 503.195 104.812 504.396C102.551 505.597 99.7593 506.657 96.438 507.576C93.1167 508.495 89.442 508.919 85.414 508.848C79.266 508.707 73.754 507.611 68.878 505.562C64.0727 503.442 59.974 500.58 56.582 496.976C53.2607 493.372 50.7167 489.238 48.95 484.574C47.1833 479.91 46.3 474.928 46.3 469.628C46.3 463.692 47.1833 458.251 48.95 453.304C50.7873 448.357 53.3667 444.082 56.688 440.478C60.08 436.874 64.108 434.083 68.772 432.104C73.436 430.125 78.5947 429.136 84.248 429.136C89.4773 429.136 94.106 429.843 98.134 431.256C102.162 432.669 105.448 434.189 107.992 435.814L101.95 450.336C100.183 448.993 97.816 447.615 94.848 446.202C91.9507 444.718 88.594 443.976 84.778 443.976C81.81 443.976 78.948 444.612 76.192 445.884C73.5067 447.085 71.104 448.817 68.984 451.078C66.9347 453.339 65.3093 455.989 64.108 459.028C62.9067 461.996 62.306 465.247 62.306 468.78C62.306 472.525 62.836 475.953 63.896 479.062C65.0267 482.171 66.6167 484.857 68.666 487.118C70.7153 489.309 73.1533 491.005 75.98 492.206C78.8773 493.407 82.128 494.008 85.732 494.008C89.9013 494.008 93.47 493.337 96.438 491.994C99.406 490.651 101.667 489.238 103.222 487.754L109.582 501.534ZM118.938 484.256C118.938 479.521 120.033 475.281 122.224 471.536C124.485 467.791 127.63 464.858 131.658 462.738C135.686 460.547 140.315 459.452 145.544 459.452C150.844 459.452 155.437 460.547 159.324 462.738C163.211 464.858 166.179 467.791 168.228 471.536C170.348 475.281 171.408 479.521 171.408 484.256C171.408 488.991 170.348 493.266 168.228 497.082C166.179 500.827 163.211 503.795 159.324 505.986C155.437 508.177 150.773 509.272 145.332 509.272C140.244 509.272 135.686 508.283 131.658 506.304C127.701 504.325 124.591 501.463 122.33 497.718C120.069 493.973 118.938 489.485 118.938 484.256ZM133.884 484.362C133.884 486.765 134.379 488.955 135.368 490.934C136.357 492.842 137.7 494.361 139.396 495.492C141.092 496.623 143 497.188 145.12 497.188C147.452 497.188 149.466 496.623 151.162 495.492C152.858 494.361 154.165 492.842 155.084 490.934C156.003 488.955 156.462 486.765 156.462 484.362C156.462 481.889 156.003 479.698 155.084 477.79C154.165 475.882 152.858 474.363 151.162 473.232C149.466 472.101 147.452 471.536 145.12 471.536C143 471.536 141.092 472.101 139.396 473.232C137.7 474.363 136.357 475.882 135.368 477.79C134.379 479.698 133.884 481.889 133.884 484.362ZM196.561 461.678L197.727 469.84L197.515 469.204C199.352 466.095 201.649 463.692 204.405 461.996C207.161 460.229 210.482 459.346 214.369 459.346C216.913 459.346 219.139 459.699 221.047 460.406C223.025 461.113 224.686 462.173 226.029 463.586C227.371 464.929 228.29 466.695 228.785 468.886L228.255 468.992C230.233 466.095 232.601 463.763 235.357 461.996C238.183 460.229 241.116 459.346 244.155 459.346C248.748 459.346 252.387 460.653 255.073 463.268C257.829 465.812 259.242 469.133 259.313 473.232V508H244.579V479.38C244.508 477.331 244.19 475.67 243.625 474.398C243.059 473.055 241.752 472.313 239.703 472.172C237.3 472.172 235.251 473.02 233.555 474.716C231.929 476.341 230.693 478.461 229.845 481.076C229.067 483.62 228.679 486.27 228.679 489.026V508H213.839V479.38C213.768 477.331 213.379 475.67 212.673 474.398C212.037 473.055 210.694 472.313 208.645 472.172C206.313 472.172 204.334 473.02 202.709 474.716C201.154 476.341 199.953 478.426 199.105 480.97C198.327 483.514 197.939 486.129 197.939 488.814V508H183.099V461.678H196.561ZM274.607 461.678H289.447V508H274.607V461.678ZM274.289 445.248C274.289 443.057 275.137 441.255 276.833 439.842C278.599 438.429 280.472 437.722 282.451 437.722C284.429 437.722 286.231 438.429 287.857 439.842C289.553 441.255 290.401 443.057 290.401 445.248C290.401 447.439 289.553 449.241 287.857 450.654C286.231 451.997 284.429 452.668 282.451 452.668C280.472 452.668 278.599 451.997 276.833 450.654C275.137 449.241 274.289 447.439 274.289 445.248ZM318.192 461.678L319.358 469.946L319.146 469.204C320.771 466.307 323.068 463.975 326.036 462.208C329.004 460.371 332.643 459.452 336.954 459.452C341.335 459.452 344.974 460.759 347.872 463.374C350.84 465.918 352.359 469.239 352.43 473.338V508H337.59V478.85C337.519 476.801 336.954 475.175 335.894 473.974C334.904 472.702 333.208 472.066 330.806 472.066C328.544 472.066 326.566 472.808 324.87 474.292C323.174 475.776 321.866 477.79 320.948 480.334C320.029 482.878 319.57 485.811 319.57 489.132V508H304.73V461.678H318.192ZM391.623 531.32C387.454 531.32 383.92 530.825 381.023 529.836C378.196 528.847 375.794 527.645 373.815 526.232C371.836 524.819 370.07 523.476 368.515 522.204L377.207 512.028C378.832 513.512 380.705 514.925 382.825 516.268C385.016 517.681 387.878 518.388 391.411 518.388C393.743 518.388 395.898 517.964 397.877 517.116C399.926 516.339 401.552 515.173 402.753 513.618C404.025 512.063 404.661 510.12 404.661 507.788V497.612L405.191 500.262C404.06 502.665 402.011 504.785 399.043 506.622C396.075 508.389 392.188 509.272 387.383 509.272C383.214 509.272 379.327 508.212 375.723 506.092C372.19 503.901 369.363 500.969 367.243 497.294C365.123 493.549 364.063 489.309 364.063 484.574C364.063 479.698 365.194 475.387 367.455 471.642C369.716 467.826 372.649 464.823 376.253 462.632C379.857 460.441 383.673 459.346 387.701 459.346C391.729 459.346 395.192 459.947 398.089 461.148C401.057 462.279 403.283 463.692 404.767 465.388L404.237 466.766L405.827 461.678H419.501V508C419.501 512.523 418.229 516.515 415.685 519.978C413.141 523.511 409.749 526.267 405.509 528.246C401.34 530.295 396.711 531.32 391.623 531.32ZM379.009 484.15C379.009 486.623 379.574 488.849 380.705 490.828C381.836 492.807 383.355 494.361 385.263 495.492C387.242 496.623 389.432 497.188 391.835 497.188C393.884 497.188 395.686 496.941 397.241 496.446C398.866 495.881 400.28 495.103 401.481 494.114C402.753 493.054 403.813 491.747 404.661 490.192V478.85C404.025 477.295 403.071 475.988 401.799 474.928C400.527 473.797 399.043 472.949 397.347 472.384C395.722 471.748 393.884 471.43 391.835 471.43C389.432 471.43 387.242 471.995 385.263 473.126C383.355 474.186 381.836 475.67 380.705 477.578C379.574 479.486 379.009 481.677 379.009 484.15ZM484.268 508.954C480.452 508.954 476.883 508.283 473.562 506.94C470.311 505.597 467.555 503.725 465.294 501.322L471.442 493.16C473.703 495.209 475.788 496.693 477.696 497.612C479.675 498.46 481.441 498.884 482.996 498.884C484.197 498.884 485.257 498.778 486.176 498.566C487.165 498.283 487.943 497.895 488.508 497.4C489.073 496.835 489.356 496.128 489.356 495.28C489.356 494.079 488.861 493.125 487.872 492.418C486.953 491.711 485.752 491.146 484.268 490.722C482.784 490.227 481.194 489.733 479.498 489.238C475.258 487.895 472.184 485.952 470.276 483.408C468.439 480.793 467.52 477.967 467.52 474.928C467.52 472.596 468.121 470.264 469.322 467.932C470.594 465.529 472.573 463.551 475.258 461.996C478.014 460.371 481.547 459.558 485.858 459.558C489.745 459.558 493.031 459.947 495.716 460.724C498.401 461.501 500.945 462.773 503.348 464.54L497.73 473.232C496.387 472.172 494.868 471.289 493.172 470.582C491.547 469.805 490.027 469.381 488.614 469.31C487.342 469.239 486.247 469.381 485.328 469.734C484.48 470.087 483.809 470.547 483.314 471.112C482.819 471.677 482.572 472.278 482.572 472.914C482.501 474.257 482.996 475.317 484.056 476.094C485.187 476.871 486.6 477.472 488.296 477.896C489.992 478.32 491.653 478.815 493.278 479.38C495.539 480.087 497.483 481.041 499.108 482.242C500.733 483.443 501.97 484.892 502.818 486.588C503.737 488.213 504.196 490.192 504.196 492.524C504.196 495.351 503.454 498.036 501.97 500.58C500.557 503.053 498.366 505.067 495.398 506.622C492.501 508.177 488.791 508.954 484.268 508.954ZM513.022 484.256C513.022 479.521 514.117 475.281 516.308 471.536C518.569 467.791 521.714 464.858 525.742 462.738C529.77 460.547 534.399 459.452 539.628 459.452C544.928 459.452 549.521 460.547 553.408 462.738C557.295 464.858 560.263 467.791 562.312 471.536C564.432 475.281 565.492 479.521 565.492 484.256C565.492 488.991 564.432 493.266 562.312 497.082C560.263 500.827 557.295 503.795 553.408 505.986C549.521 508.177 544.857 509.272 539.416 509.272C534.328 509.272 529.77 508.283 525.742 506.304C521.785 504.325 518.675 501.463 516.414 497.718C514.153 493.973 513.022 489.485 513.022 484.256ZM527.968 484.362C527.968 486.765 528.463 488.955 529.452 490.934C530.441 492.842 531.784 494.361 533.48 495.492C535.176 496.623 537.084 497.188 539.204 497.188C541.536 497.188 543.55 496.623 545.246 495.492C546.942 494.361 548.249 492.842 549.168 490.934C550.087 488.955 550.546 486.765 550.546 484.362C550.546 481.889 550.087 479.698 549.168 477.79C548.249 475.882 546.942 474.363 545.246 473.232C543.55 472.101 541.536 471.536 539.204 471.536C537.084 471.536 535.176 472.101 533.48 473.232C531.784 474.363 530.441 475.882 529.452 477.79C528.463 479.698 527.968 481.889 527.968 484.362ZM573.579 484.256C573.579 479.521 574.674 475.281 576.865 471.536C579.126 467.791 582.271 464.858 586.299 462.738C590.327 460.547 594.955 459.452 600.185 459.452C605.485 459.452 610.078 460.547 613.965 462.738C617.851 464.858 620.819 467.791 622.869 471.536C624.989 475.281 626.049 479.521 626.049 484.256C626.049 488.991 624.989 493.266 622.869 497.082C620.819 500.827 617.851 503.795 613.965 505.986C610.078 508.177 605.414 509.272 599.973 509.272C594.885 509.272 590.327 508.283 586.299 506.304C582.341 504.325 579.232 501.463 576.971 497.718C574.709 493.973 573.579 489.485 573.579 484.256ZM588.525 484.362C588.525 486.765 589.019 488.955 590.009 490.934C590.998 492.842 592.341 494.361 594.037 495.492C595.733 496.623 597.641 497.188 599.761 497.188C602.093 497.188 604.107 496.623 605.803 495.492C607.499 494.361 608.806 492.842 609.725 490.934C610.643 488.955 611.103 486.765 611.103 484.362C611.103 481.889 610.643 479.698 609.725 477.79C608.806 475.882 607.499 474.363 605.803 473.232C604.107 472.101 602.093 471.536 599.761 471.536C597.641 471.536 595.733 472.101 594.037 473.232C592.341 474.363 590.998 475.882 590.009 477.79C589.019 479.698 588.525 481.889 588.525 484.362ZM651.201 461.678L652.367 469.946L652.155 469.204C653.781 466.307 656.077 463.975 659.045 462.208C662.013 460.371 665.653 459.452 669.963 459.452C674.345 459.452 677.984 460.759 680.881 463.374C683.849 465.918 685.369 469.239 685.439 473.338V508H670.599V478.85C670.529 476.801 669.963 475.175 668.903 473.974C667.914 472.702 666.218 472.066 663.815 472.066C661.554 472.066 659.575 472.808 657.879 474.292C656.183 475.776 654.876 477.79 653.957 480.334C653.039 482.878 652.579 485.811 652.579 489.132V508H637.739V461.678H651.201Z" fill="white"/>
<line x1="4" y1="78" x2="4.00002" y2="534" stroke="white" stroke-width="8"/>
<g clip-path="url(#clip0_7_96)">
<path d="M605.038 123.855L604.725 123.687L604.84 124.046L605.327 124.13L605.738 124.099L606.188 124.191L606.569 124.183L606.607 123.969L605.959 123.657L605.898 123.817L605.807 123.893L605.685 123.916L605.517 123.687L605.479 123.268L605.335 123.085L605.114 122.925L604.763 122.864L604.946 123.123L604.862 123.222L604.718 123.291L604.695 123.482L605.007 123.527L605.228 123.771L605.198 123.817L605.038 123.855Z" fill="white"/>
<path d="M605.259 122.048L605.137 121.957L605.099 122.056L604.931 122.216L604.992 122.3L605.388 122.46L605.259 122.048Z" fill="white"/>
<path d="M420.022 30.3311L420.029 30.1939L420.022 30.1405L420.037 30.0719L419.968 30.0795L419.999 30.1329L419.953 30.1634L419.946 30.2549L419.991 30.3235L420.022 30.3311Z" fill="white"/>
<path d="M617.788 261.393L617.818 261.385L617.796 261.294L617.719 261.309L617.735 261.378L617.788 261.393Z" fill="white"/>
<path d="M377.688 142.119L377.536 142.256L377.429 142.569L377.483 142.615L377.658 142.653V142.478L377.81 142.401L377.894 142.302L377.925 142.18L377.871 142.142L377.688 142.119Z" fill="white"/>
<path d="M376.18 142.546L376.104 142.584L375.944 142.683L375.815 142.828L375.738 142.836L375.571 142.904L375.594 142.981L375.738 143.186L376.066 143.126L376.241 143.026L376.317 142.889L376.264 142.554L376.18 142.546Z" fill="white"/>
<path d="M376.904 142.706L376.79 142.577L376.752 142.63L376.683 142.981L376.736 143.011L376.683 143.126L376.919 143.148L376.957 143.034L376.919 142.76L376.904 142.706Z" fill="white"/>
<path d="M376.934 141.441L376.881 140.923L376.675 140.884L376.454 141.182L376.439 141.388L376.546 141.509L376.744 141.57L376.934 141.441Z" fill="white"/>
<path d="M378.084 141.151L378.321 141.235L378.359 141.144L378.465 141.067L378.64 141.014L378.648 140.74L378.427 140.801L378.084 141.151Z" fill="white"/>
<path d="M376.592 139.703L376.447 139.688L375.914 139.726L375.937 139.855L376.119 140.16L376.378 140.214L376.592 139.703Z" fill="white"/>
<path d="M599.142 284.467L599.211 284.536L599.257 284.543L599.279 284.536L599.295 284.498L599.196 284.437L599.142 284.467Z" fill="white"/>
<path d="M609.372 196.79L608.93 197.087L608.846 197.324L608.998 197.285L609.501 197.049L609.577 196.988L609.592 196.92L609.554 196.859L609.372 196.79Z" fill="white"/>
<path d="M622.091 268.627L621.924 268.162L621.764 268.185L621.703 268.398L621.444 268.414L621.528 268.94L622.061 269.001L622.053 268.856L622.091 268.627Z" fill="white"/>
<path d="M628.23 283.934L628.101 284.589L628.558 283.804L628.908 282.92L628.763 282.996L628.23 283.934Z" fill="white"/>
<path d="M630.096 275.465L629.776 274.603L629.655 273.689L629.525 271.691L629.121 269.748L628.687 268.459L628.565 267.629L628.314 267.217L628.025 266.828L627.339 265.814L627.126 265.395L626.935 264.953L626.699 264.618L626.227 264.153L626.09 263.954L626.014 263.68L625.816 263.497H625.587L624.887 264.48L624.46 264.999L624.331 265.083L623.942 264.999L623.866 265.128L624.14 265.715L624.308 266.18L624.414 266.668L624.376 267.072L623.912 268.459L623.196 269.13L622.724 269.306L622.312 269.595L622.038 270.022L621.703 270.357L621.429 270.304L621.01 269.953L620.827 269.839L620.591 269.915L620.423 270.121L620.24 270.403L620.187 270.731L620.263 270.944L620.644 271.371L620.591 271.47L620.484 271.554L620.477 271.821L619.738 273.094L619.89 273.826L620.515 274.367L620.134 274.253L619.738 274.215L619.502 274.398L619.319 274.664L618.999 275.175L618.725 275.716L618.534 275.785L618.336 275.732L618.39 275.434L618.519 275.206L618.611 274.984L618.565 274.756L618.481 274.535L618.374 274.497L618.016 274.763L617.879 275L617.727 275.51L617.392 275.937L616.958 276.387L616.965 276.57L617.019 276.776L617.133 277.027L617.125 277.279L616.988 277.584L616.828 277.675L616.699 277.66L616.714 277.538L616.554 276.776L616.348 276.677L616.105 276.715L615.259 277.363L614.444 277.919L614.079 278.285L613.858 278.765L613.835 278.994L613.896 279.192L614.307 279.535L614.132 279.657L613.942 279.634L613.789 279.573L613.279 278.903L613.149 278.872L612.525 279.055L612.037 279.131L611.283 279.192L611.123 279.299L611.04 279.482L610.979 279.749L610.864 279.947L610.636 279.909L610.407 279.916L609.821 280.13L609.661 280.023L609.531 279.817L609.333 279.764L609.105 279.909L608.602 280.381L608.244 280.625L608.054 280.717L606.599 280.846L606.287 280.9L606.15 281.014L606.089 281.205L606.051 281.723L606.127 282.615L606.066 282.966L604.261 285.9L604.116 286.716L604.322 287.181L604.398 287.669L604.375 288.218L604.512 289.742L604.786 290.665L605.076 291.16L605.297 291.686L605.35 292.212L605.297 292.944L605.319 293.127L605.921 294.11L606.172 294.651L606.195 295.185L606.104 295.718L605.997 296.793L605.898 297.281L605.769 297.761L605.327 298.775L604.824 299.499L604.603 299.98L603.986 300.894L603.758 301.817L603.53 302.266L603.133 302.594L602.646 302.762L602.311 303.044L602.052 304.317L601.938 304.53L601.778 304.713L601.663 304.942L601.625 305.209L601.45 305.567L601.359 306.085L601.313 307.084L601.351 307.557L601.61 308.921L601.724 309.356L601.892 309.783L602.593 310.636L602.775 311.117L602.867 311.643L603.118 312.153L603.21 312.633L602.981 313.083L602.897 313.579L602.966 314.638L602.943 315.218L602.996 316.071L603.073 316.331L603.735 317.139L603.971 317.596L604.116 318.251L604.299 318.602L604.375 318.907L604.489 319.197L604.664 319.326L605.388 319.738L605.754 320.233L606.005 320.355L606.279 320.439L607.186 320.561L607.658 320.721L608.892 321.666L609.265 321.788L610.499 321.758L610.887 321.598L611.245 321.323L612.182 320.752L613.149 320.249L614.079 319.989L615.038 319.982L615.472 319.89L616.326 319.433L616.722 319.12L617.3 318.259L617.696 317.253L617.849 316.712L617.94 316.148L618.1 315.705L618.329 315.286L618.854 314.166L618.984 313.64L619.045 313.091L619.601 311.315L619.86 310.24L620.08 309.157L620.286 307.915L620.393 307.595L621.375 305.171L622.091 303.006L622.571 301.039L623.135 299.111L623.554 298.021L623.912 296.923L624.407 295.086L624.986 293.31L625.565 291.899L625.953 290.832L626.22 289.94L626.692 288.058L626.753 287.082L626.524 285.702L626.57 285.245L626.943 284.361L627.164 283.926L627.339 283.766L627.758 283.583L627.865 283.431L627.75 283.187L627.735 282.958L628.048 282.531L628.162 282.036L628.131 281.052L627.941 280.641L627.766 280.481L627.644 280.29L627.636 279.665L627.583 279.169L627.461 278.674L627.385 278.133L627.446 277.942L627.773 277.637L628.223 277.591L628.383 277.668L628.52 278.163L628.901 279.124L629.205 279.535L629.571 279.787L629.67 279.802L629.883 279.551L630.005 279.368L630.47 278.392L630.79 277.363L630.614 276.364L630.096 275.465Z" fill="white"/>
<path d="M375.137 105.827L374.931 105.896L374.825 106.102L374.588 106.498L374.634 106.78L374.748 106.94L375.015 106.513L375.137 105.827Z" fill="white"/>
<path d="M471.274 170.011L470.916 170.552L471.175 170.583L471.571 170.461L471.685 170.179L471.457 170.133L471.274 170.011Z" fill="white"/>
<path d="M418.514 254.182L418.239 254.395L418.209 254.594L418.575 254.563L418.712 254.449L418.696 254.205L418.514 254.182Z" fill="white"/>
<path d="M383.218 220.733L383.127 220.718L383.066 220.817L382.997 220.969L383.028 221.069L383.066 221.099H383.203L383.401 221.023L383.454 220.939L383.348 220.847L383.218 220.733Z" fill="white"/>
<path d="M390.629 157.388L390.34 157.266L389.365 157.327L388.969 157.54L390.37 157.937L390.644 158.203L390.705 158.089L390.804 157.685L390.759 157.487L390.629 157.388Z" fill="white"/>
<path d="M486.34 41.3917L485.616 41.4146L485.571 41.5747L485.525 42.154L485.67 42.2531H485.784L486.081 42.4056L486.18 42.3903L486.378 42.2607L486.485 42.2379L486.629 42.1159L486.812 41.9253L486.797 41.8262L486.728 41.7348L486.34 41.3917Z" fill="white"/>
<path d="M487.81 36.9019L487.703 36.8105L487.284 37.184L487.162 37.4965L487.795 37.1382L487.81 36.9019Z" fill="white"/>
<path d="M601.862 214.117L602.143 214.132L602.425 214.482L602.593 214.414L602.692 214.711L602.829 214.848L602.943 214.841L603.164 214.742L603.202 214.574L602.89 213.705L602.859 213.667L602.631 213.461L602.372 212.79L602.326 212.211L602.128 211.845L601.953 212.386L601.648 212.706L601.709 213.331L601.61 213.697L601.862 214.117Z" fill="white"/>
<path d="M603.613 210.557L603.75 210.648L603.918 210.709L604.108 210.503L604.345 209.939L604.367 209.528L604.352 208.91L604.413 208.712L604.39 208.506L604.047 208.666L603.606 208.598L603.72 209.36L603.499 210.397L603.613 210.557Z" fill="white"/>
<path d="M603.461 221.107L603.545 221.16L603.766 221.107L603.971 220.84L604.23 220.794L604.527 220.085L604.565 219.757L604.497 219.818L604.314 220.093L603.788 220.504L603.56 220.794L603.324 220.939L603.461 221.107Z" fill="white"/>
<path d="M616.211 130.563L615.929 130.807L616.181 131.036L616.257 131.051L616.31 130.96L616.356 130.792L616.211 130.563Z" fill="white"/>
<path d="M616.097 131.882L615.914 132.217L616.181 132.088L616.341 131.829L616.287 131.813L616.097 131.882Z" fill="white"/>
<path d="M615.343 125.281L615.381 125.441L615.511 125.349L615.594 125.227L615.648 125.075L615.556 124.808L615.427 124.915L615.343 125.281Z" fill="white"/>
<path d="M651.316 145.55L651.019 145.45L650.6 145.214L650.57 145.313V145.519L650.067 145.71L649.938 145.664L650.014 145.55L650.189 145.481L650.235 145.283L650.341 145.031L650.38 144.78L650.303 143.034L650.143 141.959L650.357 141.258L650.692 140.625L650.745 140.259L650.837 139.901L650.578 139.855L648.948 139.268L648.308 139.436L647.866 139.939L647.615 140.336L646.16 141.159L644.248 141.487L643.212 141.936L641.879 142.234L641.377 142.287L641.232 142.302L640.303 142.02H639.884L639.335 142.157L637.622 142.782L636.373 142.897L635.398 142.638H635.116L634.4 142.95L633.356 143.674L631.688 144.421L631.262 144.475L630.424 144.277L629.487 144.223L628.642 144.048L628.154 144.177L626.692 144.818L625.085 145.702L622.815 145.725L622.381 145.55L621.886 145.222L620.636 144.254L619.73 143.209L618.953 141.913L618.154 141.273L617.811 140.999L617.323 140.907H616.79L616.295 141.022L615.739 141.235L615.457 141.288L615.282 141.258L615.206 140.976L615.686 141.029L616.333 140.282L617.346 139.909L618.26 139.322L618.527 139.085L618.702 138.819L618.824 138.407L618.595 137.668L618.367 137.264L617.681 136.44L617.62 136.242L617.476 135.754L617.14 135.449H617.133L617.019 135.823L616.821 135.762C596.652 155.093 530.28 159.393 513.851 160.17C511.764 160.269 509.967 158.729 509.738 156.656C509.487 154.4 511.17 152.387 513.44 152.25L526.982 151.442C527.142 150.825 527.15 150.352 527.104 150.032H499.265C496.508 150.032 494.269 147.791 494.269 145.031C494.269 142.272 496.508 140.031 499.265 140.031H523.722C523.966 139.192 523.928 138.605 523.859 138.277H490.742C488.153 138.277 486.058 136.181 486.058 133.589C486.058 130.998 488.153 128.901 490.742 128.901H496.904L497.422 128.185L498.092 126.767L499.608 124.572L500.385 123.451L501.063 122.712C499.684 121.812 498.785 120.265 498.785 118.534C498.785 115.493 501.474 113.153 504.483 113.58L505.282 113.694L536.366 118.062C536.587 116.956 536.45 116.209 536.32 115.874L523.745 109.898C521.513 108.838 520.554 106.178 521.59 103.937C522.587 101.787 525.07 100.773 527.279 101.627C528.468 102.092 529.869 102.595 531.369 103.113L529.808 102.29L527.858 101.261L525.901 100.224L523.951 99.1877L521.993 98.1511L520.043 97.1143L518.086 96.0777L516.136 95.0333L514.179 93.989L512.229 92.9447L510.271 91.9004L508.314 90.8484L506.966 90.1243L505.511 90.8332L504.368 91.3896L502.868 92.1214L501.139 93.0666L499.814 93.7908H499.753L499.692 93.7679L498.313 92.5407L499.692 93.7756L499.753 93.7908H499.814L501.139 93.0743L502.868 92.129L504.368 91.3972L505.511 90.8408L506.966 90.1319L508.314 90.856L510.271 91.908L512.229 92.9523L514.179 93.9966L516.136 95.0409L518.086 96.0853L520.043 97.122L521.993 98.1587L523.951 99.1954L525.901 100.232L527.858 101.269L529.808 102.298L531.377 103.129C539.771 106.018 551.675 109.425 551.675 109.425C574.518 114.235 588.014 108.053 593.46 104.539L593.445 103.533L593.605 102.831L593.384 102.069L593.316 101.36L593.255 100.979L593.293 100.445L593.567 100.56L593.727 100.728L593.75 100.583L593.735 100.43L593.544 100.095L593.011 99.4774L592.379 98.334L592.196 97.5336L592.15 96.5274V96.4435L591.983 96.0853L590.292 94.7818L589.538 93.7451L588.251 93.2572L587.976 93.0514L587.778 92.7694L587.375 92.3349L586.834 90.8941L586.666 90.1319L586.59 88.6302L586.636 88.3481L586.742 87.9975L586.956 87.8984L587.116 87.8679L587.733 87.9213L587.085 87.3495L586.483 86.9532L586.156 86.4348L585.326 85.5201L583.932 82.5319L583.224 81.1675L582.759 80.0393L581.799 78.53L580.657 76.1364L580.291 75.6867L580.025 73.8572L579.849 73.2322L579.651 72.851L579.225 72.5156L579.065 72.104L578.623 71.2883L578.661 70.8538L578.616 69.9467L578.402 69.5961L577.9 69.2454L577.206 68.5136L576.475 67.4312L575.965 66.8595L575.797 66.5546L575.691 66.2192L575.508 65.8304L574.998 65.1749L574.883 64.8776L574.906 63.9933L574.746 63.3378L574.609 63.0329L573.924 62.3392L573.771 61.8818L573.969 61.3254L574.297 60.8451L574.228 60.4945L574.403 60.3877L574.609 60.2658L575.348 59.8008C575.348 59.8008 575.546 59.3663 575.66 58.5049C575.775 57.6359 575.66 57.6359 575.622 57.209C575.584 56.7745 575.386 56.2638 575.348 55.9513C575.31 55.6387 574.761 55.0823 574.761 55.0823L574.472 54.9298L573.619 54.1904L573.322 54.0075H573.185L573.291 54.2361L573.451 54.4572L573.147 54.846L572.72 54.9679L572.575 54.6783L572.339 54.3581L571.905 54.2666L571.372 54.0151L571.799 53.4358L571.867 53.108L572.614 53.7712L572.857 53.7864L572.157 53.0165L571.852 52.8259L571.646 52.8946L570.694 53.2299L570.359 53.2147L569.011 52.5973L568.554 52.521L568.432 52.5744L568.348 52.9784L568.226 53.1918L567.571 53.2986L567 53.4739L566.437 53.4129L567.747 52.9098L567.906 52.6964L566.467 53.1461L565.751 53.2223L565.545 53.4891L565.416 53.7102L565.21 53.9007L565.05 54.1828L564.662 54.198L564.342 54.1523L563.854 54.3352L562.476 55.3643L561.813 55.7683L561.204 56.058L560.716 56.2104L560.358 56.2333L559.955 56.1037L559.277 55.6921L558.089 55.1814L555.857 54.9603L555.293 54.4953L554.44 54.5106L554.113 54.4115L552.925 53.6187L550.967 53.1766L549.695 52.9784L547.395 52.46L545.308 52.9784L544.668 52.8793L544.363 52.3L544.219 52.0255L543.853 51.2023L543.548 50.8669L543.251 50.7221L542.459 50.5696L541.629 50.6611L540.197 50.6001L539.832 50.4705L539.26 50.036L538.849 49.8835L536.762 49.6167L536.031 49.0527L536.046 48.7325L536.122 48.4886L535.962 47.6653L535.254 47.3299L534.591 47.0707L533.647 46.8116L532.9 46.3923L532.276 46.2017L530.859 46.2475L530.379 46.0874L530.029 46.1103L529.168 46.7811L528.734 46.8878H527.691L525.893 47.8482L524.872 48.5724L523.859 49.5939L523.494 50.1275L523.258 50.6535L523.067 51.5301L523.212 52.7878L523.448 53.4815L523.791 54.0075L523.943 54.5106L523.981 55.067L523.821 55.6159L523.418 56.3934L522.191 57.8722L521.689 58.2229L520.47 58.8175L519.785 58.9242L519.023 58.8098L517.934 58.2152L515.976 56.5001L514.994 56.1495L514.506 55.7912L512.541 55.0594L510.226 54.4267L508.877 54.3657L507.537 54.1904L506.349 53.7254L505.831 53.4129L505.381 52.9098L504.978 52.3076L504.643 51.4538L504.437 50.7983L504.422 49.8912L504.049 49.1594L503.683 48.7782L500.979 48.1989L500.613 48.0083L499.852 47.3756L499.517 47.2384L498.207 46.8421L497.445 46.8116L496.988 46.6896L495.96 46.2475L495.366 46.3313L493.797 46.7963L492.464 46.6591L491.862 46.5143L489.958 45.3708L489.318 45.2489L488.693 44.944L488.259 44.7229L488 44.7991L487.574 44.6848L487.444 44.6086L487.566 44.5019L487.718 44.4256L487.665 44.3189L487.231 44.0216L486.964 43.0764L486.446 42.7639L486.203 43.2212L485.913 43.2974L485.487 43.3203L485.411 42.8553L485.449 42.4666L484.39 42.5962L483.781 42.276L483.187 41.6814L482.737 40.6676L482.699 40.256L482.798 39.9053L483.019 39.5699L483.354 39.2421L484.717 38.2588L485.357 37.5956L486.073 36.5741L486.439 35.8271L487.109 34.798L486.797 34.3254L486.751 33.7308L486.629 33.243L486.645 32.8314L485.746 32.1377L485.357 32.0005L484.954 31.5583L484.603 30.8266L484.481 30.1024L484.527 29.6984L484.679 29.3554L485.159 28.8675L485.791 28.494L486.485 27.221L486.85 26.7179L487.14 26.5502L486.934 26.0776L486.843 25.5363L486.424 25.605L485.67 26.2681L484.877 26.5273L484.664 26.9771L484.23 27.282L483.743 27.0304L483.91 26.6035L483.316 25.7422L483.346 24.8579L482.905 24.6292L482.501 24.5987L482.044 24.614L482.059 24.8274L482.128 24.9875L481.861 25.2238L481.671 24.8351L481.8 24.614L481.892 24.3319L481.564 24.2252L481.275 24.1719L479.051 24.9189L478.716 25.1171L477.756 25.9251L476.751 26.23L474.93 26.3749L474.047 26.6493L473.559 26.5273L472.813 25.9175L472.097 25.6126L471.167 25.4449L471.305 26.0776L470.916 26.2072L470.033 26.3291L468.601 25.9022L468.235 25.4754L467.588 25.6812L467.268 26.23L466.514 26.6035L465.127 26.9313L463.901 27.564L463.376 27.7012L462.972 27.5564L462.157 26.8856L461.677 26.6112L461.19 26.4358H457.199L456.147 26.9542L453.916 27.0075L453.398 27.2439L452.37 27.9452L451.349 27.8918L449.849 28.1129L446.924 28.3568L445.758 28.7379L445.02 29.18L443.892 29.6603L443.062 30.1634L442.407 30.6665L441.98 31.4897L441.584 31.8328L441.013 31.9014L440.351 31.6803H440.046L438.043 32.6637L437.35 33.1134L436.87 33.5327L436.337 34.1882L435.735 34.4931L434.958 35.0953L433.983 35.5374L433.556 35.5832L432.734 35.4917L431.904 35.3926L431.035 35.446L430.647 35.3316L430.205 35.3697L430.083 35.1487L429.855 34.577L429.741 34.4398L429.725 34.2035L429.664 33.9824L429.291 34.4321L428.705 34.8209L427.935 34.9581L427.136 34.8743L426.717 34.6151L426.328 34.7904H425.536L424.119 35.2097L422.901 34.981L422.048 34.6075L420.951 33.6699L420.349 32.9305L420.006 32.2749V31.7108L420.25 31.4745L419.763 31.3373L419.252 31.6803L418.841 31.848L418.331 31.9166L417.607 32.0691L417.47 32.595L415.855 37.123L414.21 40.3093L413.616 41.1173L412.618 41.7957L410.912 42.7334L407.896 44.0369L407.035 44.6314L406.693 44.9516L405.718 46.2551L404.05 47.9473L404.034 48.3666L403.882 49.5481L403.631 50.2952L402.298 52.1018L401.749 53.4739L401.65 55.1661V56.2257L401.475 56.8432L401.567 57.1938L401.894 57.392L402.382 58.1314L402.496 58.5811L402.321 59.7322L402.008 60.4411L401.567 61.1424L400.919 61.9352L400.142 63.1624L398.977 64.6413L398.215 65.2282L396.555 66.2802L395.664 67.1568L395.131 67.8276L394.628 68.163L392.861 69.0015L390.888 69.558L389.563 69.7028L388.931 70.0001L388.557 70.6633L388.009 71.1892V71.2045L387.689 72.2031L387.064 73.5294L386.714 74.7872L386.387 75.4123L385.899 75.8315L384.856 76.5328L383.972 76.8682L383.386 77.4094L382.974 77.6076L382.746 78.0193L382.533 79.1017L382.205 79.6277L381.779 80.8092L381.421 81.4571L381.222 82.288L381.169 83.8583L380.971 84.5444L380.423 85.3143L379.813 85.6268L378.191 87.441L377.407 87.9746L376.911 88.4625L376.691 88.9275L376.576 89.24L376.851 88.9808L377.087 88.653L377.308 88.4701L377.361 88.6912L377.292 88.8893L376.736 89.766L376.515 90.3301L376.036 91.2067L375.64 91.7784L375.807 92.0681L375.678 92.4492L375.259 92.9371L375.038 93.9966L374.406 95.1477L373.712 95.4068L373.263 95.9099L372.707 97.0534L372.41 99.1572L372.387 99.3478L372.022 101.619L372.227 101.84L372.166 101.436L372.25 100.956L372.402 100.369L372.57 99.5536H372.578L372.41 100.369L372.258 100.956L372.166 101.436L372.235 101.84L372.441 100.819L372.547 100.659L372.722 100.491L372.936 100.621L373.537 101.84L373.971 102.587L374.215 102.717L374.329 102.504L374.345 102.26L374.55 102.344L374.756 102.504L375.144 103.533L375.647 104.348L375.525 104.722L375.556 105.332L375.35 106.262L374.695 107.619L375.266 107.451L375 107.893L374.573 107.977L374.413 108.099L374.566 108.434L375.259 108.998L375.64 109.646L375.898 110.873L376.165 111.72L376.317 113L376.386 114.441L376.188 115.905L375.662 117.414L375.091 118.55L374.611 119.937L374.535 120.562L374.314 121.271V123.177L374.162 123.619L373.05 125.486L371.808 127.057L370.727 127.605L370.224 127.766L370.59 128.2L370.696 127.895L370.993 127.872L371.344 127.994L371.725 128.246L372.09 128.909L372.524 129.244L372.905 130.068L373.24 130.548L373.263 130.921H373.469L373.773 130.792L373.979 130.769L373.895 130.906L373.507 131.097L373.37 131.333L373.454 131.607L373.85 131.897L374.093 132.24L374.2 132.667L374.329 133.208L374.695 133.65L375.061 133.688L375.944 133.246L377.11 133.193L378.252 133.025L378.785 133.094L378.831 133.155L378.656 133.193H378.062L377.3 133.33L376.561 133.399L375.86 133.506L375.739 133.749V133.932L375.396 133.887L374.817 133.986L374.23 133.849L374.063 133.62L373.994 133.292L373.773 133.124L373.446 133.33L373.141 133.681L373.37 134.489L373.393 134.84L373.415 135.19L373.37 135.594L373.408 136.349L373.324 136.486L373.37 136.661L373.469 136.837L373.644 136.76L373.758 136.684L373.903 136.417L374.07 136.295L374.268 136.509L374.649 136.669L374.703 136.73L374.672 136.852H374.52L374.253 136.753L373.743 136.943L373.408 137.088L373.309 137.309L373.469 137.614L373.606 137.805L374.726 138.43L375.236 138.27L375.51 138.293L375.472 138.422L375.213 138.681L375.175 139.063L375.396 139.367L375.952 139.619L376.683 139.444L376.843 139.535L376.911 139.611L376.752 140.168L377.254 140.267L377.94 140.038L378.496 139.627L378.816 139.52L379.821 139.589L380.133 139.406H380.27L380.293 139.505L380.171 139.642L380.042 139.672L379.722 139.825H378.884L378.671 139.947L378.534 140.214V140.442L378.892 140.892L379.105 140.862L379.28 140.671L379.631 140.595L380.072 140.701L380.278 140.968L379.905 141.037L379.547 141.067L378.823 141.372L378.618 141.738L378.739 141.822L378.945 141.776L379.128 141.799L379.151 141.875L378.96 142.058L378.938 142.34L378.968 142.546L379.273 142.821L379.494 142.782L379.684 142.805L379.661 143.324L379.829 143.308L380.171 142.866H380.347L380.187 143.4L380.392 143.69L380.362 144.132L380.522 144.261H380.674L380.88 143.674L381.032 143.575L381.238 143.598L381.489 143.728L381.565 144.017L381.824 144.52L381.893 144.734L382.236 144.414L382.258 144.543L382.152 145.031L382.167 145.313L382.913 146.563L383.965 147.059H384.307L384.475 147.006L384.536 147.112L384.566 147.394L384.84 147.722L385.389 148.057L385.655 148.126L385.823 147.905L385.914 147.89L385.869 148.202L386.044 148.515V149.079L385.907 149.506L386.409 149.475L386.95 149.986L387.072 150.23L387.11 150.421L387.521 150.817L387.628 151.015L387.491 151.396L387.529 151.518L387.613 151.77L388.093 152.143L388.481 152.212L388.435 152.311L387.879 152.364L387.803 152.684V152.974L387.986 153.462L388.23 153.416L388.367 153.264L388.915 153.31L389.113 153.142L389.151 153.249L389.075 153.447L388.74 153.675L388.367 154.095L388.07 154.026L387.887 153.851L387.651 153.836L387.605 154.072L387.895 154.461L388.108 154.956L388.634 155.009L388.892 155.238L389.022 155.612L389.205 156.427L389.327 156.58L389.608 156.694L389.951 157.007L390.469 157.068L390.713 156.854H390.835L390.713 157.212L391.033 157.708L390.835 158.127L390.812 158.356L391.376 158.539L393.074 159.187L393.874 159.575L394.628 160.155L394.788 160.323L395.671 161.214L396.844 161.756L397.476 162.137L397.735 162.769L398.055 162.983L398.505 163.181L399.236 163.356L399.815 163.722L402.351 166.017L403.494 167.153L404.484 167.915L408.048 169.813L409.107 170.148L410.486 170.728L410.958 170.789L410.851 170.644L410.958 170.781L411.445 170.682L412.238 170.232L412.946 169.988L413.494 169.607L413.814 169.47L415.025 169.104L417.013 168.319L417.615 168.083L419.039 167.762L421.088 167.595L420.913 167.465H420.258L419.839 167.511L419.968 167.343L420.182 167.267L421.24 167.297L421.461 167.526L421.751 167.564L422.718 167.427L425.262 167.191L425.163 167.084L424.95 167.061L422.939 167.168L423.167 166.985L423.967 166.893L424.934 166.863L425.49 166.931L425.955 167.229L428.088 167.595L428.232 167.473L428.537 166.756L428.689 166.68L428.887 166.703L428.819 167.297L429.245 167.48L429.398 167.511L429.428 167.595L429.718 167.648L429.939 167.526L430.258 167.511L430.342 167.381L430.365 167.053V166.794L430.479 166.672L430.51 166.36L430.479 166.68L430.365 166.794V167.061L430.342 167.389L430.258 167.518L429.939 167.534L429.718 167.656L429.428 167.61H429.154L428.628 167.541L428.499 167.679L429.04 167.785L429.169 167.808L429.649 167.953L430.639 168.09L431.965 168.433L432.505 168.662L433.221 169.112H433.587L434.501 168.639L435.065 168.227L435.621 167.991L437.403 167.404L438.492 167.221L439.018 166.848L439.764 166.535L440.32 166.101L441.226 165.826L442.803 165.049H444.486L444.799 165.033L445.621 164.828L445.857 164.431L446.033 164.073L446.261 163.837L446.596 163.684L447.099 163.448L448.371 163.158L449.171 162.975L451.082 162.701L452.796 162.533V162.297L452.918 161.603L452.994 161.336L453.078 161.131L452.994 160.887L452.91 160.551L452.865 160.025L452.971 159.865L453.009 159.667L452.987 159.354V158.318L453.047 158.203L453.124 158.12V157.982L452.987 157.716L452.857 157.411V156.969L452.811 156.542L452.72 156.343L452.789 155.619L452.827 154.697L452.789 154.293L452.872 154.003L452.918 153.294V152.601L453.078 151.503H453.086L452.91 152.601V153.294L452.872 154.003L452.789 154.293L452.827 154.705L452.789 155.619L452.72 156.343L452.811 156.542L452.865 156.969V157.411L452.987 157.716L453.124 157.982V158.12L453.047 158.203L452.987 158.318V159.354L453.009 159.667L452.971 159.865L452.865 160.025L452.91 160.551L452.994 160.887L453.086 161.131L453.002 161.336L452.926 161.611L452.811 162.304V162.541L453.078 162.51L455.371 162.419L455.759 161.893L456.056 161.87L456.932 161.596L457.069 161.657L456.231 162.091L456.003 162.175L455.843 162.297L455.988 162.373H458.592L459.841 162.617L460.664 163.158L461.593 163.943L462.332 164.881L462.538 165.003L462.591 165.163L462.614 165.514L462.858 165.674L463.277 165.514L463.398 165.3L463.49 165.247V165.491L463.581 165.59H463.855L464.015 165.636L463.756 165.788L463.33 165.773L463.033 165.796L462.964 165.956L463.101 166.162L463.726 166.497L464.396 166.2L464.32 166.398L464.191 166.596L463.939 166.649L463.65 166.764L463.635 167.084L463.657 167.351L463.734 167.442L464.092 167.526L463.993 167.64L463.795 167.579L463.711 167.633L463.977 168.38L464.16 168.822L464.404 169.256L464.541 169.607L465.402 170.392L465.843 170.674L466.11 170.872L466.544 171.071L466.94 171.124L467.07 171.063L467.108 170.682L467.336 170.491L467.351 170.735L467.275 170.888L467.306 170.987L467.451 171.01L468.113 170.888H468.266L468.486 170.857L468.593 170.308L468.684 170.392L468.745 170.72L468.806 170.865H469.141L469.317 170.85L469.736 170.728L469.461 170.339V169.836L469.431 169.592L469.355 169.295H469.439L469.591 169.622L469.652 170.118L469.766 170.453L469.995 170.659L470.36 170.629L470.939 170.148L470.977 169.737L470.665 169.447L470.619 169.325L470.893 169.455L471.152 169.752L471.472 170.019L472.188 169.988L472.394 169.828L472.424 169.622L472.478 169.584L472.622 169.973L472.942 170.118L473.582 170.133L474.511 169.996H475.593L475.737 169.584L475.357 168.555L475.433 168.487L475.798 168.891L476.012 168.936L476.164 169.211L476.507 169.302L476.629 169.165H476.682L476.735 169.188L476.583 169.782L476.613 169.92L476.758 170.11L477.093 170.148L477.23 170.011L477.108 169.516L477.299 169.622L477.52 169.889L477.703 169.912L477.901 169.889L478.038 169.912L478.16 169.988L478.099 170.476L478.144 170.789L478.22 171.063L478.403 171.307L478.495 171.871L478.959 172.077L479.515 172.252L479.713 172.351L479.767 172.481L479.972 172.542L480.231 172.557L480.384 172.473L480.544 172.237L480.475 171.97L480.589 171.993L480.749 172.123H480.955L481.237 171.924L481.313 172.008L481.153 172.206L481.115 172.382L481.511 172.732L481.526 172.847L481.069 172.778L480.924 173.007L480.772 173.075L481.016 173.487L481.122 173.83L481.625 173.784L481.244 174.135L482.075 175.065L482.234 175.355L482.303 175.667C483.857 176.696 486.149 178 489.227 179.189L490.498 179.242H491.367L492.212 179.197L492.898 179.258L493.187 179.326L493.454 179.357L494.276 179.395L495.35 179.341L495.716 179.357L495.922 179.486L496.021 179.745H496.996L497.97 179.761H496.996L496.021 179.745L495.922 179.486L495.716 179.357L495.35 179.341L494.276 179.395L493.454 179.357L493.187 179.326L492.898 179.258L492.212 179.197L491.367 179.242L491.176 179.227H490.498L489.227 179.181C495.076 181.453 503.744 183.305 515.466 182.139L515.512 181.544V180.348L516.075 178.709L515.504 180.348V181.544L515.458 182.139C518.269 181.857 521.239 181.415 524.408 180.744C524.408 180.744 540.974 176.003 548.804 172.961C551.013 172.1 553.496 173.114 554.494 175.271C555.537 177.512 554.57 180.172 552.338 181.232L539.763 187.208C539.626 187.543 539.496 188.283 539.717 189.396L571.601 184.921C574.609 184.502 577.298 186.835 577.298 189.876C577.298 192.308 575.546 194.389 573.154 194.808L567.488 195.799L567.442 196.112L567.495 196.592L567.678 196.904L567.731 197.308L567.64 197.804L567.533 198.101L567.404 198.2L567.259 198.238L567.061 198.208L566.825 198.254L566.566 198.345L566.406 198.36L566.322 198.467L565.949 199.229L565.873 199.344L565.949 199.222L566.322 198.459L566.406 198.353L566.566 198.337L566.825 198.246L567.061 198.2L567.259 198.231L567.404 198.193L567.533 198.093L567.64 197.796L567.724 197.301L567.678 196.897L567.495 196.584L567.442 196.112L567.48 195.807L551.5 198.589C551.447 198.94 551.447 199.511 551.675 200.274H560.396L560.336 200.19L560.404 200.266H565.919L565.881 200.083L565.949 199.862L565.987 199.801L566.079 199.565L565.987 199.809L565.949 199.87L565.881 200.098L565.911 200.274H585.333C587.923 200.266 590.018 202.362 590.018 204.946C590.018 207.53 587.923 209.634 585.333 209.634H561.76L561.79 209.703L562.019 210.275L562.133 210.618L562.293 211.022L562.415 211.388H576.818C579.575 211.388 581.814 213.629 581.814 216.388C581.814 219.148 579.575 221.389 576.818 221.389H566.939L567.099 221.709L567.221 222.075L567.328 222.372L567.549 222.867L567.8 223.233L568.112 223.554L568.379 223.744L568.112 223.546L567.8 223.226L567.549 222.86L567.328 222.364L567.221 222.067L567.099 221.701L566.939 221.381H548.987C548.949 221.701 548.949 222.174 549.109 222.791L562.651 223.599C564.921 223.737 566.604 225.741 566.353 228.005C566.117 230.079 564.319 231.618 562.24 231.519C551.965 231.032 522.161 229.164 496.34 223.111L496.325 223.211V223.561L496.371 223.851L496.295 224.11L495.053 225.429L495.023 225.299L495.145 225.131L495.206 224.987L495.015 225.078L494.817 225.36V225.596L495.122 226.351L495.449 227.007L495.617 227.67L495.67 228.303L495.99 228.813L496.173 229.522L496.836 230.589L497.018 231.268L497.399 231.649L497.757 232.152L497.826 232.663L498.214 233.379L498.268 233.898L498.008 235.697V237.046L497.605 238.342L497.247 239.02L496.508 239.996L495.472 240.545L494.741 241.063L494.391 242.115L492.974 243.83L492.783 245.164L492.273 246.353L491.87 248.869L491.024 251.445L490.788 252.566L490.59 253.077L490.316 253.442L490.11 253.648L489.706 253.915L489.783 254.266L489.897 254.571L489.988 256.766V257.62L489.828 258.329L489.676 259.945H489.691L489.607 260.867L489.653 262.087L489.828 263.162L490.544 264.313L490.91 265.174L491.131 265.479L492.083 266.386L492.608 267.141L494.992 271.905L495.51 272.583L495.983 274.062L496.66 275.777L498.245 278.217L498.443 278.804L498.793 279.512L500.217 281.372L500.789 282.516L501.048 283.636L501.025 284.094L500.926 284.604L500.781 284.544L500.697 284.422L500.553 284.81L500.636 285.298L500.842 286.198V287.067L500.933 287.806L500.88 289.62L500.956 290.299L501.474 291.846L502.045 292.921L502.327 294.026L502.251 294.987L502.266 295.49L502.434 296.283L502.358 297.152L502.708 298.204L502.86 299.835L503.386 300.323L503.561 300.696L503.66 301.115L503.5 301.428L503.538 301.977L503.873 302.922L504.17 304.203L504.391 304.713L505.93 307.381L506.631 308.243L507.103 308.609L508.443 310.019L508.9 310.392L509.06 310.187L509.632 309.79L509.891 309.683L509.639 309.79L509.068 310.187L508.908 310.392L509.045 310.507L510.104 312.222L510.964 314.067L511.939 317.344L512.587 318.976L513.935 321.705L515.001 323.443L515.923 324.746L516.113 325.165L516.517 326.995L516.593 327.704L516.578 328.84L516.273 329.556L515.763 330.029L515.397 330.158L515.108 329.838L514.826 330.044L514.643 330.417L514.758 331.073L515.085 331.485L515.222 332.003L515.557 332.27L515.892 333.009L516.319 333.314L516.517 333.771L517.02 334.762L517.119 335.151L517.157 335.601L516.707 335.853L516.624 336.516L516.7 337.08L516.936 337.606L517.142 337.857V336.973L517.302 336.683L517.439 336.569L517.728 336.523L518.147 336.493L518.322 336.546L518.551 336.676L518.619 337.072L518.634 337.392L518.612 337.606L518.634 337.941L518.924 337.926L519.13 337.842L519.724 337.873L519.929 338.2L520.318 338.177L520.455 338.299L520.668 338.574L520.638 338.963L520.539 339.184L520.919 339.138L521.91 339.87L522.785 339.885L523.098 339.976L523.486 340.03L525.177 338.658L525.566 338.429L526.563 338.315L527.005 338.048L527.447 337.956L527.736 337.941L528.506 338.155H528.917L529.747 337.987H530.707L532.565 336.485L533.251 336.409L533.822 336.195H534.561L535.338 336.455L536.732 336.546L537.067 336.485L538.026 336.074L538.483 336.112L540.464 336.447L542.147 337.004L543.091 336.973L543.411 336.432L543.807 336.005L544.485 335.944L545.742 336.279L546.138 336.317L546.397 336.195L546.458 335.403L547.083 334.854L547.829 334.732L549.627 334.968L550.381 334.709L552.27 333.794L553.435 333.009L555.057 331.721L555.461 331.515L556.9 330.128L557.86 329.426L559.521 327.826L560.633 326.423L562.08 324.845L563.108 323.869L563.496 323.648L564.075 323.161L565.37 321.484L566.117 320.264L566.893 318.938L567.769 317.222L568.364 316.422L568.965 314.966L569.635 313.967L571.441 311.909L571.905 311.795L572.164 311.665L572.461 311.46L573.52 310.446L573.886 309.874L574.533 308.487L575.028 305.75L575.226 304.988L575.813 303.326L575.965 302.266L575.98 302.167L576.163 299.53L576.247 298.76L576.087 298.775L575.995 298.973L575.813 299.599L575.63 299.477L575.493 299.301L575.226 299.095L574.998 298.79L574.761 298.394L575.028 297.929L575.302 297.563L575.584 296.763L576.27 296.069L577.846 295.032L578.593 294.705L579.842 294.156L582.987 293.043L584.556 292.273L585.227 291.785L585.63 291.29L586.377 290.131L586.59 289.658L586.803 288.584L586.72 288.408H586.567L586.476 288.706L586.217 288.645L586.103 288.469L586.133 288.065L586.613 285.74L586.948 284.757L586.666 283.911L586.605 283.408L586.819 282.165V281.837L586.773 281.601L586.666 281.342L586.621 281.052L586.468 281.014L586.316 281.289L586.24 281.898L586.27 282.28L586.171 282.508L585.897 282.257L585.935 281.654L585.95 280.671L585.722 279.459L585.699 278.971L585.128 277.851L585.082 276.974L584.526 275.274L584.099 274.687L583.642 274.215L583.399 273.826L583.368 273.529L583.582 272.164L583.559 271.463L583.604 270.998L583.429 270.761L583.17 270.479L583.46 270.518L583.993 270.998H584.153L584.389 270.967L586.087 269.588L587.253 268.162L588.075 267.43L588.593 267.08L589.187 266.775L589.423 266.904L589.637 266.859L589.751 266.249L590.01 266.561L590.322 266.462L590.353 266.134L590.703 265.631L590.871 265.387L591.754 264.48L592.341 263.71L592.424 263.497L592.508 263.123L592.752 262.872L592.958 262.765L593.75 262.041L594.839 261.317L596.172 260.555L597.025 260.25L597.185 260.059L597.421 259.914L598.381 259.602L599.409 259.213L599.561 259.091L599.736 259.068L599.919 259.106L600.437 259.053L600.727 258.893L601.252 258.756L601.648 258.199L601.892 257.986L603.453 257.079L604.025 256.606L604.352 256.469L604.131 255.867L604.413 255.684L604.916 255.569L605.388 254.891L605.426 254.723V254.525L605.83 254.052L606.264 253.618L607.262 252.391L607.635 251.491V251.201L607.498 250.874L607.597 250.736L607.81 250.668L607.78 250.439L607.833 250.096L608.138 249.73L608.381 249.517L608.419 249.212L608.32 248.861L608.343 248.587L608.282 248.442L608.305 248.152L608.13 247.954H607.932L607.604 248.45L607.559 248.084L607.574 247.824L607.871 247.405V247.085L607.612 247.016L607.422 246.887L607.391 246.696L607.368 245.53L607.246 244.585V244.211L607.186 243.922L607.338 243.548L607.216 243.213L607.285 242.915L607.262 242.466L607.3 242.222L607.285 241.917H606.744V241.711L606.789 241.581L607.216 241.246L607.292 240.972L607.33 240.461L607.201 240.004L606.949 239.859L607.094 239.447L607.041 239.112L607.01 238.304L607.132 237.823L607.048 237.557L606.98 237.16L606.736 236.383L606.866 235.514L606.614 235.026L606.69 234.751L606.98 234.393L607.193 233.921L607.117 233.753L607.033 233.638L607.071 233.356L607.399 232.945L606.949 232.67L607.231 232.465L607.46 232.236L607.071 231.847L606.858 231.42L606.386 231.786L605.647 232.35L604.923 232.907L605.647 232.358L606.386 231.794L606.858 231.428L606.812 231.336L606.744 231.199L606.553 230.963L605.845 230.498L605.525 230.338L605.304 230.147L604.893 230.163L604.733 229.888L604.398 229.598L603.834 229.507L604.07 229.149L604.032 228.829L603.842 228.364L603.712 227.761L603.423 227.06L603.484 226.161L602.707 225.131L602.821 224.979L602.867 224.804L602.41 224.224L602.113 223.081L602.136 222.7L602.265 222.25L602.676 221.297L602.623 220.482L602.227 220.207L602.052 220.375V219.262L602.319 218.538L602.646 217.989L602.996 217.646L603.103 217.234L602.798 216.64L602.044 216.381L601.801 215.847L601.382 215.313L601.146 215.085L600.795 214.902L600.353 214.391L600.277 213.873L600.072 213.316L600.133 212.523L600.506 211.494L600.78 211.052L601.107 209.878L601.229 209.611L601.351 209.2L601.366 208.849L601.686 208.011L601.77 207.668L601.641 207.607L601.763 207.66L601.785 207.553L602.029 207.325L602.395 207.393L602.859 206.791L603.453 205.457L603.537 205.32L603.659 205.106L603.842 204.802L603.903 204.649L603.964 204.474L604.2 203.955L604.375 203.102L604.52 202.934L604.687 202.553L604.908 202.179L605.411 201.768L605.464 201.455L605.738 200.83L605.677 200.014L605.853 199.481L606.081 199.237L606.599 198.94L607.574 198.871L608.259 198.269L608.29 198.04L608.61 197.773L608.709 197.468L608.64 197.24L608.572 196.775L608.678 196.851L608.823 196.904L608.899 196.645L608.998 196.477L609.257 196.577L609.455 196.607L610.11 196.455L610.598 196.134L611.192 195.433L611.596 194.953L612.007 194.351L612.471 193.428L612.647 193.215L612.799 192.826L613.02 192.491L613.538 192.01L613.995 191.53L614.734 190.6L615 190.379L615.389 189.83L615.686 189.541L616.006 189.236L619.09 185.988L620.111 185.028L621.398 184.014L622.625 182.855L625.024 181.148L628.718 179.105L629.632 178.434L633.006 175.126L635.588 172.336L637.477 170.179L638.528 168.311L640.219 166.093L641.849 163.311L642.024 162.35L642.603 160.833L643.068 159.957L643.974 158.699L644.385 157.99L644.751 157.205L645.116 155.955L646.145 154.979L646.891 153.706L647.036 153.249L647.478 152.319L648.323 151.229L648.513 150.687L649.085 149.917L649.115 148.751L649.283 147.867L649.382 146.502L649.511 146.159L649.945 145.954L650.654 145.763L650.898 145.877L651.37 145.946L651.393 145.793L651.309 145.572L651.316 145.55ZM617.201 136.448L616.699 136.616L617.194 136.448H617.201ZM482.158 74.7643L481.922 74.4518L481.755 73.8572L481.922 74.4442L482.158 74.7567V74.7643ZM484.527 51.8731L484.801 51.5529L485.015 51.1565L485.068 50.9431L485.373 50.7221L485.73 50.501L485.365 50.7221L485.06 50.9431L485.007 51.1565L484.794 51.5606L484.519 51.8807L484.527 51.8731ZM481.115 58.7946L481.808 58.5125L482.166 58.2991L482.318 58.1161L482.836 57.3844L483.103 56.9727L483.468 56.4163L483.628 56.0275V55.6692L483.575 55.2347L483.286 54.1904L483.049 53.169L483.286 54.1828L483.575 55.2271L483.628 55.6616V56.0199L483.461 56.4086L483.095 56.9651L482.829 57.3691L482.311 58.1009L482.158 58.2838L481.8 58.4973L481.107 58.7793L480.62 59.0309L481.1 58.7793L481.115 58.7946ZM477.878 49.571L478.594 50.0893L477.885 49.5786L477.878 49.571ZM378.1 120.234L377.498 120.326L376.721 120.295L376.249 120.219L376.089 120.097L375.86 120.067L375.586 120.135L375.876 120.067L376.097 120.097L376.256 120.219L376.729 120.295L377.506 120.326L378.1 120.234ZM424.576 135.533L424.432 135.137L424.576 135.541V135.533ZM407.789 65.1596L407.668 65.274L407.789 65.152V65.1596ZM378.519 120.044H378.526L379.082 119.929H379.775L380.126 119.838L379.76 119.929H379.067L378.511 120.044H378.519ZM379.844 132.804L379.76 133.018L379.631 133.254L379.463 133.391L378.663 133.475L377.947 133.559L377.567 133.635L377.308 133.688L377.231 134.397L377.315 133.688L377.574 133.635L377.955 133.559L378.671 133.475L379.471 133.391L379.638 133.254L379.768 133.018L379.852 132.804H379.844ZM380.248 119.617H380.255L380.4 119.678L380.529 119.655L380.392 119.685L380.248 119.617ZM385.473 121.82L385.236 121.774L384.977 121.545L384.833 121.317L384.802 121.088L384.353 120.631L383.477 119.945L382.525 119.624L381.497 119.67L380.918 119.64L380.788 119.533H380.796L380.925 119.632L381.504 119.663L382.533 119.617L383.485 119.937L384.361 120.623L384.81 121.08L384.84 121.309L384.985 121.538L385.244 121.766L385.48 121.805L385.473 121.82ZM386.234 99.4469H388.702L388.664 98.86L388.634 98.395L388.595 97.7775L388.557 97.1601L388.519 96.5426L388.481 95.9557L388.443 95.3687L388.413 94.8275L388.382 94.332L388.329 94.0424L388.131 93.4783L388.085 93.1962L388.138 92.8989L388.268 92.6169L388.634 92.0986L389.182 91.7022L389.822 91.2448L390.309 90.8941L390.561 90.8103L391.322 90.6883L391.924 90.4215L392.503 90.1624L392.746 90.0175L392.777 89.5373V78.6596H406.373V72.7671H406.38V78.6672H392.785V89.5373L392.754 90.0175L392.51 90.1624L391.932 90.4215L391.33 90.6883L390.568 90.8103L390.317 90.8941L389.829 91.2448L389.19 91.7022L388.634 92.0986L388.268 92.6093L388.138 92.8913L388.085 93.1886L388.131 93.4706L388.329 94.0424L388.382 94.332L388.413 94.8275L388.443 95.3687L388.481 95.9557L388.519 96.5426L388.557 97.1601L388.595 97.7775L388.634 98.4026L388.664 98.8676L388.702 99.4469H386.211H386.234ZM400.485 125.029L400.226 124.976L399.944 124.892L400.218 124.976L400.477 125.029H400.485ZM397.362 126.012H397.149H397.355H397.362ZM390.72 148.4L390.583 148.744L390.72 148.416L390.812 148.103L390.72 148.4ZM391.619 127.415L391.185 127.11L390.979 126.752L390.637 126.477L390.164 126.294L389.86 126.089L389.715 125.852L389.54 125.7L389.357 125.616L389.342 125.532L389.388 125.418L389.342 125.204L389.06 124.724L388.801 124.503L388.58 124.541L388.458 124.48L388.382 124.373L388.352 124.221L388.199 124.091L387.94 124.03L387.727 123.68L387.567 123.032L387.362 122.521L387.11 122.155L386.927 122.018L386.79 121.995L386.745 121.942L386.706 121.835L386.508 121.797H386.516L386.714 121.827L386.752 121.934L386.798 121.988L386.935 122.01L387.118 122.148L387.369 122.513L387.575 123.024L387.735 123.672L387.948 124.023L388.207 124.084L388.359 124.213L388.39 124.366L388.466 124.473L388.588 124.534L388.809 124.495L389.068 124.716L389.342 125.197L389.388 125.41L389.342 125.524L389.357 125.608L389.54 125.692L389.715 125.845L389.86 126.081L390.164 126.287L390.637 126.47L390.979 126.744L391.185 127.102L391.619 127.407L391.711 127.438L392.419 127.705L391.703 127.438L391.612 127.407L391.619 127.415ZM396.258 158.615L395.846 158.95L395.519 159.362L395.846 158.943L396.258 158.607L396.418 158.447L396.258 158.615ZM397.956 151.16L398.071 150.855L398.208 150.588L398.071 150.87L397.956 151.16ZM398.451 153.607L398.253 154.14L398.154 154.293L398.116 154.4L398.154 154.278L398.253 154.125L398.451 153.592L398.962 153.058L398.451 153.607ZM399.426 155.139L398.908 155.269L399.426 155.131V155.139ZM399.853 153.919L399.838 154.003L399.853 153.912V153.919ZM403.623 138.163L403.433 138.178L403.098 138.277L402.686 138.468L402.397 138.636L402.168 139.055L402.008 139.108L401.734 139.055L400.957 138.75L400.317 138.498L399.876 138.354L399.609 138.445L399.472 138.491L399.091 138.659L398.588 139.276L398.467 139.482L398.368 139.55L398.23 139.657H398.101L397.994 139.589L397.964 139.543L397.705 139.101L397.423 138.613L397.187 138.392H396.898L396.646 138.537L396.898 138.384H397.187L397.423 138.613L397.705 139.101L397.964 139.543L397.994 139.589L398.101 139.665H398.23L398.368 139.55L398.467 139.482L398.588 139.276L399.091 138.659L399.472 138.491L399.609 138.445L399.876 138.354L400.317 138.498L400.957 138.75L401.734 139.055L402.008 139.108L402.168 139.055L402.397 138.636L402.686 138.468L403.098 138.277L403.433 138.178L403.623 138.163ZM405.832 139.589V140.031L405.817 140.534V140.031L405.832 139.589ZM406.548 143.43L406.708 143.446L406.883 143.408L407.249 143.194L407.53 143.27L407.805 143.43L407.53 143.263L407.249 143.186L406.883 143.4L406.708 143.438L406.548 143.423V143.43ZM410.082 151.328L409.998 151.198L409.838 151.046L409.518 150.893L409.838 151.038L409.998 151.19L410.09 151.335L410.082 151.328ZM410.326 153.134L410.44 153.47L410.326 153.149L410.059 152.829L409.381 152.555V152.54L410.059 152.814L410.326 153.134ZM409.602 149.956L409.336 150.001L409.054 150.024L408.818 149.887L408.62 149.62L408.818 149.879L409.054 150.016L409.336 149.994L409.61 149.94L409.602 149.956ZM409.107 155.208L408.978 155.109L408.81 155.124L408.604 155.055L408.292 154.895L408.132 154.758L408.284 154.887L408.597 155.048L408.802 155.116L408.978 155.101L409.107 155.2V155.208ZM407.393 157.799L407.271 157.677L407.195 157.632L407.264 157.67L407.386 157.799H407.393ZM409.252 162.861L408.894 162.808L408.642 162.853L408.345 162.838L408.003 162.724L407.767 162.594L407.546 162.343L407.34 162.144L407.172 162.167L406.967 162.121L406.769 162.03L406.708 161.961L406.769 162.022L406.967 162.114L407.165 162.16L407.332 162.137L407.538 162.335L407.759 162.586L407.995 162.716L408.338 162.83L408.635 162.846L408.886 162.8L409.244 162.853L409.625 163.067L409.244 162.861H409.252ZM411.346 164.637L411.293 164.667L411.164 164.683L410.668 164.416L410.28 164.37L410.013 164.142L410.28 164.363L410.668 164.408L411.164 164.675L411.293 164.66L411.346 164.629L411.407 164.683L411.346 164.637ZM413.098 146.96L412.832 146.716L412.611 146.647L412.839 146.716L413.106 146.96H413.098ZM413.654 146.129L413.73 146.114L413.647 146.129H413.654ZM415.612 145.245H415.376L415.04 145.13L415.376 145.237H415.612V145.245ZM417.196 146.762L416.861 146.731L416.533 146.602L416.366 146.48L416.35 146.403L416.457 146.228L416.549 146.03V145.9L416.449 145.588L416.358 145.245L416.396 145.085L416.312 144.581L416.389 145.085L416.35 145.245L416.442 145.58L416.556 145.893V146.022L416.457 146.22L416.35 146.396V146.472L416.533 146.594L416.861 146.716L417.196 146.746V146.762ZM417.638 124.587H404.385H417.63H417.638ZM419.542 146.083L419.847 146.266L419.542 146.091V146.083ZM424.417 148.637L424.15 149.041H423.845L423.541 148.904L423.845 149.033H424.15L424.417 148.637ZM428.903 160.185L429.421 159.537L428.903 160.193V160.185ZM454.624 108.716L454.784 108.472L454.845 108.282L454.959 108.137L454.853 108.282L454.792 108.472L454.632 108.716H454.624ZM430.929 155.741L430.434 156.115L430.403 156.26L430.274 156.572L430.167 156.77L430.007 157.129L429.748 158.074L429.657 158.859L429.642 159.103L429.543 159.271L429.527 159.301L429.543 159.263L429.642 159.095L429.657 158.851L429.748 158.066L430.007 157.121L430.167 156.763L430.274 156.572L430.403 156.26L430.434 156.115L430.929 155.741ZM430.845 150.809L430.906 150.55L430.845 150.817V150.809ZM430.921 151.754L431.005 151.899L430.921 151.762V151.754ZM431.454 155.131L431.271 155.177L431.157 155.231L431.127 155.337L431.157 155.223L431.271 155.17L431.454 155.124V155.131ZM442.895 149.018L442.91 148.957L442.994 148.942L442.91 148.965L442.895 149.026V149.018ZM443.283 146.693V146.602L443.351 146.472L443.291 146.602V146.693H443.283ZM444.425 143.507L444.045 143.621H443.816V143.53L443.778 143.476L442.453 143.156L441.524 142.965L440.579 142.752L440.526 142.95L440.389 143.08H440.183L440.046 143.057L439.954 143.209L439.795 143.415L439.574 143.514L439.36 143.636L439.239 143.743H439.155L438.941 143.484L438.652 143.461L438.119 143.507L437.875 143.438L437.548 143.408L436.771 143.461L435.529 143.354L435.324 143.408L435.27 143.453L434.044 143.469L432.696 143.484L431.569 143.499H430.578V143.469V143.522H431.569L432.696 143.499L434.044 143.484L435.27 143.469L435.324 143.423L435.529 143.369L436.771 143.476L437.548 143.423L437.875 143.453L438.119 143.522L438.652 143.476L438.941 143.499L439.155 143.758H439.239L439.36 143.644L439.574 143.522L439.795 143.423L439.954 143.217L440.046 143.065L440.183 143.095H440.389L440.526 142.958L440.579 142.76L441.524 142.973L442.453 143.164L443.778 143.484L443.809 143.537V143.636H444.045L444.425 143.522L445.477 143.476L444.425 143.514V143.507ZM446.84 142.348H446.611L446.474 142.386L446.611 142.34H446.84V142.348ZM447.282 147.737L447.228 147.592L446.604 147.173L445.713 146.579L445.035 146.129L444.989 146.098L444.921 145.984L444.989 146.091L445.035 146.121L445.713 146.571L446.604 147.166L447.228 147.585L447.282 147.73V147.737ZM447.617 150.535L448.196 151.145L448.333 151.503L448.348 152.654V153.531L448.432 154.72L448.356 153.531V152.654L448.333 151.503L448.196 151.145L447.617 150.535ZM448.051 159.979L448.257 160.452L448.295 160.879L448.348 161.016L448.302 160.879L448.264 160.452L448.059 159.979H448.051ZM449.056 162.846L448.919 162.304L449.064 162.846H449.056ZM450.206 137.79L450.245 137.698L450.206 137.782V137.79ZM452.781 125.311L451.684 125.349L450.328 125.395L449.399 125.425L448.219 125.486L447.122 125.547L446.391 126.165L445.735 126.752L445.682 126.775L444.745 126.889L443.58 126.79H442.978L442.742 126.851L442.696 127.072L442.643 127.27L442.704 127.072L442.75 126.851L442.986 126.782H443.588L444.753 126.889L445.69 126.775L445.743 126.752L446.398 126.165L447.129 125.547L448.226 125.486L449.407 125.425L450.336 125.395L451.692 125.349L452.789 125.311L454.06 125.265L454.099 124.983L454.175 124.915H454.297L455.233 125.059L454.297 124.907H454.175L454.099 124.991L454.06 125.273L452.789 125.319L452.781 125.311ZM459.849 132.393L459.118 133.01L458.912 133.086L458.737 133.185L458.493 134.87L458.295 135.373L457.922 136.044L457.191 136.684L456.688 137.073L456.673 137.591L456.635 138.445V139.032L456.658 139.413L456.574 139.596L456.544 139.764L456.574 140.015L456.696 140.13L456.764 140.282L456.719 140.412L456.483 140.564L456.315 140.831L456.056 141.38V141.814L456.665 142.722L456.734 142.813L456.894 142.958L456.978 143.126L457.054 143.575L457.1 144.078L457.145 144.414L457.442 144.894L457.458 145.085L457.252 145.793L457.199 145.87L457.145 145.893L456.825 145.832L456.688 145.908L456.513 146.152L456.406 146.396V146.495L456.681 146.945L456.505 147.585L456.323 147.989L455.995 148.218L455.698 148.271L455.492 148.378L455.371 148.522L455.386 148.98L454.952 149.399L454.716 149.696L454.601 149.872L454.655 150.413L454.502 150.962L454.236 151.396L453.634 151.488L454.228 151.396L454.495 150.962L454.647 150.413L454.601 149.872L454.716 149.696L454.952 149.399L455.386 148.98L455.371 148.522L455.492 148.378L455.698 148.271L455.995 148.218L456.323 147.989L456.505 147.585L456.681 146.937L456.399 146.487V146.388L456.513 146.144L456.688 145.9L456.825 145.824L457.145 145.885L457.199 145.87L457.244 145.793L457.45 145.085L457.435 144.894L457.138 144.414L457.092 144.078L457.046 143.575L456.97 143.126L456.886 142.958L456.726 142.813L456.658 142.722L456.041 141.814L456.056 141.38L456.315 140.831L456.483 140.564L456.719 140.412L456.764 140.29L456.696 140.137L456.574 140.015L456.551 139.771L456.582 139.604L456.665 139.421L456.635 139.04V138.453L456.681 137.599L456.696 137.081L457.199 136.692L457.93 136.052L458.303 135.381L458.501 134.878L458.745 133.193L458.92 133.094L459.126 133.018L459.857 132.4L460.42 132.172L459.864 132.4L459.849 132.393ZM460.839 132.034L461.487 131.92L460.847 132.034H460.839ZM463.901 131.508L463.68 131.6L463.193 131.935L462.614 131.996L462.157 131.981L462.606 131.996L463.185 131.935L463.673 131.6L463.894 131.508L464.206 131.447L463.901 131.508ZM470.802 134.992L470.604 135.114L470.391 135.137L470.596 135.114L470.802 134.992ZM483.438 160.406L483.354 160.315L483.438 160.399V160.406ZM483.362 133.978L483.544 133.932L483.369 133.978H483.362ZM487.117 162.182L487.01 161.984L486.82 161.199L487.01 161.992L487.117 162.182ZM505.168 157.472L504.955 157.799L505.168 157.464V157.472ZM500.971 164.401L501.131 164.416H501.276L501.367 164.538L501.276 164.408H500.971V164.401ZM504.018 173.533L504.452 174.021L504.848 174.47L505.328 174.974L504.848 174.478L504.452 174.028L504.018 173.54V173.533ZM519.571 168.616L518.604 170.118L518.063 170.697L517.629 170.842L517.522 171.208L517.736 171.787L517.789 172.45L517.637 173.579L517.69 174.394L517.461 174.265L517.241 173.883L517.134 173.807L516.494 173.983L516.167 174.135L515.991 174.287L515.854 174.31L515.649 174.105L515.489 174.066L515.237 174.105H514.978L514.811 174.074L514.704 174.097L514.4 173.975L513.303 173.662L513.112 173.556L512.891 173.571L512.32 173.845L512.016 173.922L511.109 174.089L510.142 174.173H509.769L509.51 174.303L509.769 174.181H510.142L511.109 174.089L512.016 173.922L512.32 173.845L512.891 173.571L513.112 173.556L513.303 173.662L514.4 173.975L514.704 174.097L514.811 174.074L514.978 174.105H515.237L515.489 174.066L515.649 174.105L515.854 174.31L515.991 174.287L516.167 174.135L516.494 173.983L517.134 173.807L517.241 173.883L517.461 174.265L517.69 174.394L517.637 173.579L517.789 172.45L517.736 171.787L517.522 171.208L517.629 170.842L518.063 170.697L518.604 170.118L519.571 168.616ZM567.632 176.788L567.617 176.978L567.305 177.672L567.145 178.274L567.312 177.672L567.625 176.978L567.64 176.788H567.632ZM562.841 169.874L562.331 169.676L561.996 169.775L561.653 170.24L560.998 170.674L560.701 170.69L560.32 170.453L559.84 170.286L558.972 170.209L558.614 170.415L558.15 170.75L557.754 170.949L557.51 170.972L557.281 170.888L557.022 170.842H556.794L556.329 170.529L556.794 170.834H557.022L557.281 170.888L557.51 170.972L557.754 170.949L558.15 170.75L558.614 170.415L558.972 170.209L559.84 170.286L560.32 170.453L560.701 170.69L560.998 170.674L561.653 170.24L561.996 169.775L562.331 169.676L562.841 169.874ZM571.86 173.464L571.662 173.213L571.494 173.083L570.808 173.495L570.473 173.594L570.199 173.579L569.696 173.35L569.148 173.152L569.704 173.35L570.207 173.579L570.481 173.594L570.816 173.495L571.502 173.083L571.669 173.213L571.867 173.464H571.86ZM578.715 173.045L578.6 173.144L578.395 173.274L578.6 173.136L578.715 173.037V173.045ZM580.39 192.674H580.383L580.68 192.818H580.687L580.398 192.674H580.39ZM580.855 153.477L580.763 153.63L580.55 153.851L580.276 154.049L579.59 154.102H579.019L578.616 154.049L578.06 154.034L577.534 154.079L578.052 154.034L578.608 154.049L579.012 154.095H579.583L580.268 154.049L580.543 153.851L580.756 153.63L580.847 153.477H580.855ZM581.007 172.725L581.22 172.801L581.015 172.732L581.007 172.725ZM581.563 173.365H581.556L582.066 173.525H582.074L581.563 173.365ZM583.932 178.007L583.802 177.908L583.924 178L584 178.023L583.924 178.007H583.932ZM585.714 166.604L585.623 166.489V166.299L585.638 166.184L585.653 166.169L585.638 166.306V166.497L585.729 166.611H585.714V166.604ZM588.708 170.339L588.532 170.194L588.296 169.721L587.992 169.386L587.656 168.952L587.626 168.372L587.717 167.739L587.801 167.526L587.748 167.32L587.763 167.031L587.58 166.771H587.588L587.778 167.038L587.763 167.328L587.809 167.534L587.725 167.747L587.634 168.38L587.664 168.959L587.999 169.394L588.304 169.729L588.54 170.202L588.7 170.339H588.708ZM490.346 259.884L490.796 259.64L490.354 259.884H490.346ZM493.949 259.381L494.116 259.274L493.956 259.381H493.949ZM510.873 307.915L510.637 308.182L510.5 308.601L510.37 308.814L510.309 309.165L510.279 309.417L510.149 309.683L510.012 309.79L510.142 309.683L510.271 309.417L510.302 309.165L510.363 308.814L510.492 308.601L510.629 308.182L510.865 307.915L511.033 307.854L510.873 307.915ZM520.455 311.528L520.302 311.78L520.455 311.536V311.528ZM521.27 310.659L521.506 310.255L521.277 310.659H521.27ZM523.281 289.262V284.162V291.823H523.288V289.254L523.281 289.262ZM523.281 294.796V309.683V292.906V294.796ZM527.348 279.612V272.484L527.333 270.716V277.82L527.348 279.612ZM536.206 295.208L535.833 295.314L535.688 295.368L535.399 295.574L535.102 295.97L534.858 296.588L534.766 296.969L534.492 297.777L534.127 298.745L533.951 299.027L533.753 299.233L533.434 299.416L532.398 300.185L531.88 301.062L531.552 301.314L531.156 301.436L530.821 301.512L530.638 301.657L530.433 302.099L530.257 302.251L530.059 302.312L529.465 302.259L530.052 302.312L530.25 302.251L530.425 302.091L530.631 301.649L530.813 301.504L531.149 301.428L531.545 301.306L531.872 301.054L532.39 300.178L533.426 299.408L533.746 299.225L533.944 299.019L534.119 298.737L534.485 297.769L534.759 296.961L534.85 296.58L535.094 295.962L535.391 295.566L535.68 295.36L535.825 295.307L536.198 295.2L536.678 295.101L536.206 295.2V295.208ZM535.871 261.904L534.058 262.254L532.839 262.491L531.354 262.78L530.912 262.864L531.347 262.78L532.832 262.491L534.051 262.254L535.863 261.904L537.135 261.652L536.32 260.943L535.399 260.135L534.447 259.236L533.731 258.535L533.38 258.131L532.748 257.597L532.291 257.338L532.116 257.208L531.666 255.79L531.423 254.487L531.674 255.79L532.123 257.208L532.299 257.338L532.756 257.597L533.388 258.131L533.746 258.535L534.462 259.236L535.414 260.135L536.336 260.943L537.15 261.652L535.879 261.904H535.871ZM537.486 233.562L537.227 233.593L536.236 234.004L537.234 233.593L537.493 233.562H537.486ZM577.176 227.99L576.978 227.899H576.803L576.673 228.043L576.536 228.028L576.361 227.975L576.529 228.028L576.666 228.043L576.795 227.899H576.97L577.161 227.998L577.176 227.99ZM576.414 246.315L576.551 246.254L576.803 246.041L576.986 245.965L577.161 246.216L576.986 245.972L576.803 246.048L576.551 246.262L576.414 246.323V246.315ZM576.254 241.459L576.376 241.604L576.262 241.459H576.254ZM573.611 225.97L574.076 226.061L574.297 226.298L574.792 226.534L575.394 226.748L575.828 226.991L576.049 227.098L575.82 226.991L575.386 226.748L574.784 226.534L574.289 226.298L574.068 226.061L573.604 225.97H573.611ZM571.562 225.009L571.837 225.093L571.966 225.177L571.981 225.497L572.065 225.642L572.438 225.696L572.058 225.642L571.974 225.497L571.959 225.177L571.829 225.093L571.555 225.009H571.562ZM572.225 247.962L571.189 248.305L570.755 248.472L570.405 248.64L570.214 248.701L570.405 248.648L570.755 248.48L571.189 248.312L572.225 247.969V247.962ZM569.658 223.79L570.062 223.98L570.412 224.224L570.496 224.606L570.725 224.842L570.976 225.032L571.075 225.055L570.968 225.032L570.717 224.842L570.489 224.606L570.405 224.224L570.054 223.98L569.658 223.79ZM552.094 236.238L552.292 236.146L552.551 236.085L552.704 236.192L552.871 236.932L553.625 237.602L553.884 238.166L554.075 238.647L554.242 238.776L554.532 238.944L554.989 239.005L555.4 239.02L556.261 239.371L556.946 239.645L557.434 239.843L557.662 239.996L557.822 240.24L557.913 240.43L558.066 240.926L558.226 241.322L558.492 241.398L558.728 241.429L558.965 241.696L559.14 241.932L559.49 242.511L559.749 242.908L559.833 243.297L560.122 243.556L560.518 243.662L560.884 243.678L561.097 243.563L561.615 243.365L561.09 243.563L560.876 243.678L560.511 243.662L560.115 243.556L559.825 243.297L559.741 242.908L559.483 242.511L559.132 241.932L558.957 241.696L558.721 241.429L558.485 241.398L558.218 241.322L558.058 240.926L557.906 240.43L557.814 240.24L557.654 239.996L557.426 239.843L556.939 239.645L556.253 239.371L555.392 239.02L554.981 239.005L554.524 238.944L554.235 238.776L554.067 238.647L553.877 238.166L553.618 237.602L552.864 236.932L552.696 236.192L552.544 236.085L552.285 236.146L552.087 236.238H552.094ZM560.313 281.654L560.122 281.769L559.848 282.287L559.414 282.668L559.848 282.295L560.122 281.784L560.32 281.662L560.313 281.654ZM557.35 283.286L556.84 283.606L556.093 284.406L555.712 284.909L555.697 285.115L555.529 285.298L555.697 285.123L555.712 284.917L556.093 284.414L556.84 283.614L557.35 283.293V283.286ZM539.626 239.607L539.435 240.118L539.291 240.507L539.199 240.956L539.184 241.193L539.534 241.848L539.519 241.978L539.542 241.848L539.192 241.185L539.207 240.949L539.298 240.499L539.443 240.11L539.633 239.6L539.656 239.317L539.641 239.592L539.626 239.607ZM540.433 233.814L540.228 233.799L540.144 233.509L539.992 233.242L539.687 233.189L539.542 233.158L539.39 233.242L539.306 233.456L539.283 233.623L539.009 233.753L538.445 233.73L539.001 233.753L539.276 233.623L539.298 233.456L539.382 233.242L539.534 233.158L539.679 233.189L539.984 233.242L540.136 233.509L540.22 233.799L540.426 233.814H540.433ZM547.349 292.951L547.227 293.615L546.892 294.567L546.618 295.269L546.443 295.879L546.138 296.641L545.872 296.9L545.567 297.136L545.864 296.908L546.131 296.648L546.435 295.886L546.61 295.276L546.885 294.575L547.22 293.622L547.342 292.959L547.349 292.951ZM549.672 292.029L549.87 291.724L549.665 292.029H549.672ZM551.858 288.103L551.79 288.37L551.234 290.504L551.18 290.55L551.226 290.512L551.782 288.378L551.851 288.119L551.942 287.997L551.858 288.119V288.103ZM552.886 317.001L553.184 317.428L553.359 317.68L553.184 317.436L552.886 317.009V317.001ZM556.382 319.692L556.223 319.913L556.063 319.967L555.59 319.875L554.981 319.761L554.631 319.486L554.318 319.128L554.151 318.869L553.976 318.724L553.915 318.64L553.671 318.518L553.58 318.457L553.496 318.412L553.397 318.236L553.336 318.084L553.397 318.229L553.496 318.404L553.58 318.45L553.671 318.511L553.915 318.633L553.976 318.716L554.151 318.861L554.318 319.12L554.631 319.479L554.981 319.753L555.59 319.867L556.063 319.959L556.223 319.906L556.382 319.685V319.692ZM556.512 319.418L556.398 319.662L556.512 319.41V319.418ZM560.183 316.78L559.962 316.933L559.658 317.116L558.987 317.413L558.622 317.535H558.568L558.332 317.52L558.02 317.55L557.776 317.611L557.586 317.634L557.274 317.969L556.702 318.877L556.55 319.067L556.535 319.181L556.55 319.059L556.702 318.869L557.274 317.962L557.586 317.626L557.776 317.604L558.02 317.543L558.332 317.512L558.568 317.535H558.622L558.987 317.413L559.658 317.116L559.962 316.933L560.183 316.78ZM561.082 315.141L560.861 315.294L560.648 315.522L560.861 315.286L561.082 315.134L561.242 314.92L561.082 315.141ZM571.776 298.348L570.831 297.83L569.91 297.281L569.773 297.266L569.902 297.281L570.824 297.83L571.768 298.348H571.776ZM572.172 302.815L572.088 303.791L572.141 304.401L572.088 303.799L572.172 302.823V302.815ZM572.172 298.31L572.141 298.287L572.164 298.31H572.172ZM576.353 264.739L576.148 265.311L575.98 265.913V266.157L575.912 266.325L575.79 266.477L575.249 266.76L575.158 266.935V267.247L575.226 267.514L575.432 267.613L575.676 267.766L575.775 267.964V268.17L575.698 268.551L575.477 269.184L575.691 269.915L575.47 269.184L575.691 268.551L575.767 268.17V267.964L575.668 267.766L575.424 267.613L575.219 267.514L575.15 267.247V266.935L575.241 266.76L575.782 266.477L575.904 266.325L575.965 266.157V265.913L576.14 265.311L576.346 264.739L576.361 264.541L576.285 264.366L576.232 264.046L576.193 263.558V262.193L576.3 260.791L576.254 259.998L575.904 259.083L575.874 258.428L576.125 257.97L576.163 257.704L575.98 257.666L575.599 257.635L575.317 257.551L574.883 257.178L574.137 256.865L573.284 256.583L572.042 256.499L571.014 255.584L570.207 255.44L569.948 255.325L569.171 254.776L567.96 254.723L566.703 254.67L565.919 254.655L565.804 254.586L565.759 253.831V253.16H563.032L562.042 253.389L563.032 253.168H565.751L565.682 252.581L565.561 251.918L565.378 251.659L565.157 251.217L565.378 251.666L565.561 251.926L565.682 252.589L565.751 253.168V253.839L565.804 254.594L565.919 254.67L566.703 254.685L567.96 254.738L569.171 254.792L569.948 255.341L570.207 255.455L571.014 255.6L572.042 256.514L573.284 256.598L574.137 256.88L574.883 257.193L575.317 257.566L575.599 257.65L575.98 257.681L576.163 257.719L576.125 257.986L575.874 258.443L575.904 259.099L576.247 260.013L576.292 260.806L576.186 262.209V263.573L576.224 264.061L576.277 264.381L576.353 264.557L576.338 264.755L576.353 264.739ZM576.331 246.582L575.874 246.742L574.563 247.192L573.421 247.588L574.563 247.199L575.874 246.75L576.331 246.59L577.206 246.285L576.338 246.582H576.331ZM577.397 236.093L577.298 235.918L577.389 236.093H577.397ZM577.488 233.341L577.443 233.25L577.488 233.334L577.564 233.578L577.488 233.341ZM577.572 233.616L577.755 234.043L577.922 234.347L577.755 234.05L577.572 233.616ZM578.463 239.302L578.379 239.234H577.884L577.762 239.142L577.884 239.226H578.379L578.463 239.302ZM587.405 235.918L587.1 236.124L587.398 235.918H587.405ZM580.817 227.647L581.761 228.447L581.792 228.554L582.393 229.347L582.591 229.682V229.858L582.774 230.551L582.812 230.879L582.767 231.131V231.329L582.85 231.611L582.828 231.733L583.041 232.152L583.147 232.503L583.17 232.846L583.109 233.181L582.919 233.669L582.888 233.867L582.934 234.043L583.056 234.241L583.262 234.447L583.414 234.698L583.521 234.995L583.604 235.125L583.513 234.988L583.406 234.69L583.254 234.439L583.048 234.233L582.927 234.035L582.881 233.86L582.911 233.661L583.102 233.174L583.163 232.838L583.14 232.495L583.033 232.144L582.82 231.725L582.843 231.603L582.767 231.321V231.123L582.805 230.871L582.767 230.544L582.584 229.85V229.675L582.386 229.339L581.784 228.546L581.754 228.44L580.809 227.639L580.817 227.647ZM578.783 231.397L578.92 231.58L578.783 231.39V231.397ZM581.304 248.023L580.87 248.129L580.657 248.282H580.329L579.476 248.419L579.21 248.472L579.057 248.602L578.966 248.633L579.05 248.602L579.202 248.472L579.469 248.419L580.322 248.289H580.649L580.862 248.129L581.297 248.023L581.799 247.962L581.297 248.03L581.304 248.023ZM587.961 250.599L587.816 251.575L587.915 252.223L587.87 253.328L587.755 254.51L587.611 254.929L587.42 255.089L586.971 255.219L585.988 255.363L585.844 255.501L585.714 255.729L585.516 256.278L585.28 256.827L585.204 257.063L585.25 257.117L585.463 257.399L585.669 258.115L585.707 259.35L585.63 259.442L585.341 259.495L585.029 259.48L585.333 259.495L585.623 259.442L585.699 259.35L585.661 258.115L585.455 257.399L585.242 257.117L585.196 257.063L585.272 256.827L585.509 256.278L585.707 255.729L585.836 255.501L585.981 255.363L586.963 255.219L587.413 255.089L587.603 254.929L587.748 254.51L587.862 253.328L587.908 252.223L587.809 251.575L587.954 250.599L588.167 249.997L588.06 249.875L587.984 249.059L587.344 248.19L586.522 247.077L586.065 246.483L585.539 245.804L584.587 244.737L584.153 244.356L583.924 244.204L583.155 244.082L582.949 243.876L582.751 243.548L582.675 242.946L582.66 242.496L582.576 241.726L582.424 240.644L582.355 240.324L582.134 239.508L581.929 238.738L581.913 238.548L581.99 238.365L582.348 237.793L582.599 237.389L582.721 237.168L582.934 236.566L582.987 236.276L583.155 236.146L583.833 236.093H584.374L584.336 235.956L584.275 235.62L584.084 235.331L583.924 235.163L584.084 235.338L584.275 235.628L584.336 235.963L584.366 236.101H583.833L583.155 236.146L582.987 236.276L582.934 236.566L582.721 237.168L582.599 237.389L582.348 237.793L581.99 238.365L581.913 238.548L581.929 238.738L582.134 239.508L582.355 240.324L582.424 240.644L582.576 241.726L582.66 242.489L582.675 242.938L582.751 243.54L582.949 243.868L583.155 244.074L583.924 244.196L584.153 244.349L584.587 244.73L585.539 245.797L586.065 246.475L586.522 247.07L587.344 248.183L587.984 249.052L588.06 249.867L588.167 249.989L587.954 250.592L587.961 250.599ZM583.528 237.999L583.46 237.93L583.528 238.006V238.128L583.49 238.25L583.536 238.128V238.006L583.528 237.999ZM591.404 198.833L591.739 199.016L591.419 198.84L590.894 198.543L591.411 198.833H591.404ZM591.358 236.55L591.747 236.246L591.351 236.55H591.358ZM594.892 200.777L594.428 200.517L594.885 200.769L595.083 200.883L594.892 200.777ZM595.22 202.911L595.41 202.926H595.418L595.22 202.911ZM596.294 235.018L596.172 235.277L596.065 235.704L595.639 236.116L596.065 235.712L596.172 235.285L596.294 235.026L596.438 234.934L596.301 235.026L596.294 235.018ZM602.623 233.852L602.143 234.21L602.616 233.852H602.623ZM608.465 171.498H608.473L609.074 172.046L609.333 172.306L609.067 172.039L608.473 171.505L608.465 171.498ZM610.735 194.511L611.123 195.014L610.735 194.518V194.511ZM615.343 143.148H615.739L616.089 143.308L616.265 143.446L616.516 143.491H616.836L617.346 142.676L616.836 143.484H616.516L616.265 143.446L616.089 143.308L615.739 143.156H615.343V143.148ZM637.454 155.886H633.372L633.135 155.764L632.016 155.383L630.591 154.903L628.824 154.308L627.568 153.881L626.227 153.439L624.871 152.989L623.805 152.639L622.472 152.197L621.314 151.815L621.154 151.724L620.515 151.137L619.677 150.367L619.517 150.352L619.113 150.192L618.755 149.773L618.382 149.239L618.039 148.576L617.887 148.126L617.43 147.935L617.209 147.577L616.79 147.044L616.501 146.784L616.394 146.556L616.257 146.091L616.021 145.58L615.792 145.268L615.739 145.13L615.754 145.039L615.739 145.123L615.792 145.26L616.021 145.572L616.257 146.083L616.394 146.548L616.501 146.777L616.79 147.036L617.209 147.57L617.43 147.928L617.887 148.118L618.039 148.568L618.382 149.231L618.755 149.765L619.113 150.184L619.517 150.344L619.677 150.36L620.515 151.129L621.154 151.716L621.314 151.808L622.472 152.189L623.805 152.631L624.871 152.982L626.227 153.432L627.568 153.874L628.824 154.301L630.591 154.895L632.016 155.375L633.135 155.756L633.372 155.878H637.454V155.886Z" fill="white"/>
<path d="M552.369 211.304H562.415L562.293 210.938L562.133 210.534L562.019 210.191L561.79 209.619L561.767 209.558H552.231C552.163 209.886 552.125 210.48 552.369 211.311V211.304Z" fill="white"/>
<path d="M640.996 188.42C625.092 188.42 612.197 201.326 612.197 217.242C612.197 233.158 625.092 246.064 640.996 246.064C656.899 246.064 669.794 233.158 669.794 217.242C669.794 201.326 656.899 188.42 640.996 188.42ZM653.16 208.925H645.124C645.124 208.849 645.132 208.758 645.155 208.643C645.17 208.529 645.185 208.438 645.185 208.361C645.185 206.517 644.073 205.587 641.849 205.587C640.379 205.587 639.244 206.021 638.452 206.89C637.66 207.759 637.264 208.72 637.264 209.772C637.264 210.526 637.606 211.121 638.284 211.555C638.962 211.99 639.823 212.287 640.859 212.462C641.895 212.63 643.014 212.897 644.225 213.255C645.429 213.613 646.556 214.04 647.592 214.528C648.628 215.016 649.488 215.839 650.166 216.99C650.844 218.141 651.187 219.567 651.187 221.259C651.187 225.185 649.976 228.333 647.561 230.711C645.147 233.09 641.895 234.386 637.812 234.614L636.989 238.807H633.592L634.43 234.508C631.704 234.164 629.502 233.196 627.834 231.596C626.166 229.995 625.328 227.967 625.328 225.513C625.328 224.872 625.382 224.209 625.496 223.531H633.867C633.791 223.98 633.752 224.323 633.752 224.552C633.752 226.252 634.956 227.098 637.37 227.098C639.069 227.098 640.303 226.702 641.072 225.909C641.841 225.116 642.23 224.118 642.23 222.906C642.23 222.037 641.758 221.373 640.813 220.924C639.869 220.474 638.718 220.108 637.363 219.849C636.007 219.582 634.651 219.224 633.288 218.774C631.932 218.324 630.782 217.471 629.837 216.228C628.893 214.978 628.421 213.354 628.421 211.357C628.421 207.584 629.624 204.466 632.039 202.012C634.453 199.557 637.622 198.238 641.537 198.048L642.352 193.878H645.756L644.888 198.315C647.394 198.734 649.412 199.755 650.951 201.394C652.489 203.033 653.259 205.023 653.259 207.363C653.259 207.744 653.221 208.27 653.144 208.948L653.16 208.925Z" fill="white"/>
<path d="M256.226 184.144H281.368C288.833 184.144 294.888 190.204 294.888 197.674V304.729H364.557L337.785 342.339H256.233V184.144H256.226Z" fill="white"/>
<path d="M206.733 342.339V184.144H245.387V342.339" fill="white"/>
<path d="M442.392 203.513C436.489 212.15 426.717 217.31 416.267 217.31H359.637C354.778 217.31 350.832 221.32 350.832 226.267V235.377C350.832 240.324 354.77 244.333 359.637 244.333H444.052C466.712 244.333 485.083 263.017 485.083 286.068V300.612C485.083 323.656 466.712 342.347 444.052 342.347H350.223L374.817 306.65H433.991C438.85 306.65 442.795 302.64 442.795 297.693V288.423C442.795 283.476 438.858 279.467 433.991 279.467H346.491C325.659 279.467 308.773 262.293 308.773 241.101V222.517C308.773 201.326 325.659 184.151 346.491 184.151H455.614L442.384 203.521L442.392 203.513Z" fill="white"/>
<path d="M165.306 292.555L114.929 388.046H66.2971L164.422 201.585C170.066 190.852 181.187 184.136 193.305 184.136H221.41L181.339 261.85" fill="white"/>
<path d="M168.825 304.729H206.733V342.339H151.223L168.825 304.729Z" fill="white"/>
</g>
<defs>
<clipPath id="clip0_7_96">
<rect width="604" height="388" fill="white" transform="translate(66)"/>
</clipPath>
</defs>
</svg>
