<svg width="412" height="230" viewBox="0 0 412 230" fill="none" xmlns="http://www.w3.org/2000/svg">
<path d="M368.179 63.7073L368.016 63.328L368.076 64.1383L368.331 64.3279L368.546 64.2589L368.781 64.4659L368.98 64.4486L369 63.9659L368.661 63.259L368.629 63.621L368.582 63.7935L368.518 63.8452L368.43 63.328L368.41 62.3797L368.335 61.9659L368.219 61.6038L368.036 61.4659L368.131 62.0521L368.088 62.2762L368.012 62.4314L368 62.8624L368.163 62.9659L368.279 63.5176L368.263 63.621L368.179 63.7073Z" fill="white"/>
<path d="M385.483 159.268L385.244 158.706L385.153 158.11L385.056 156.808L384.755 155.541L384.431 154.701L384.34 154.159L384.152 153.891L383.936 153.637L383.425 152.977L383.266 152.703L383.123 152.415L382.947 152.196L382.595 151.893L382.492 151.764L382.436 151.585L382.288 151.466H382.117L381.594 152.107L381.276 152.445L381.179 152.499L380.889 152.445L380.833 152.529L381.037 152.912L381.162 153.215L381.242 153.533L381.213 153.796L380.867 154.701L380.332 155.138L379.98 155.252L379.673 155.441L379.468 155.72L379.218 155.938L379.013 155.903L378.701 155.675L378.564 155.6L378.388 155.65L378.263 155.784L378.127 155.968L378.087 156.182L378.144 156.321L378.428 156.599L378.388 156.664L378.309 156.718L378.303 156.892L377.751 157.722L377.865 158.199L378.331 158.552L378.047 158.478L377.751 158.453L377.575 158.572L377.439 158.746L377.2 159.079L376.995 159.432L376.853 159.476L376.705 159.442L376.745 159.248L376.842 159.099L376.91 158.955L376.876 158.805L376.813 158.661L376.734 158.637L376.467 158.81L376.364 158.965L376.251 159.297L376.001 159.576L375.676 159.869L375.682 159.988L375.722 160.122L375.807 160.286L375.802 160.45L375.699 160.649L375.58 160.709L375.483 160.699L375.495 160.619L375.375 160.122L375.222 160.058L375.04 160.083L374.409 160.505L373.801 160.868L373.528 161.106L373.363 161.419L373.346 161.568L373.391 161.698L373.698 161.921L373.567 162.001L373.425 161.986L373.312 161.946L372.931 161.509L372.834 161.489L372.368 161.608L372.004 161.658L371.441 161.698L371.322 161.767L371.259 161.886L371.214 162.06L371.129 162.19L370.958 162.165L370.788 162.17L370.35 162.309L370.231 162.239L370.134 162.105L369.986 162.07L369.816 162.165L369.44 162.473L369.173 162.632L369.031 162.691L367.945 162.776L367.712 162.811L367.61 162.885L367.564 163.01L367.536 163.347L367.593 163.929L367.547 164.157L366.2 166.071L366.092 166.602L366.246 166.905L366.302 167.223L366.285 167.581L366.388 168.575L366.592 169.176L366.808 169.499L366.973 169.842L367.013 170.185L366.973 170.662L366.99 170.781L367.439 171.422L367.627 171.775L367.644 172.123L367.576 172.471L367.496 173.172L367.422 173.49L367.326 173.803L366.996 174.464L366.621 174.936L366.456 175.249L365.995 175.845L365.825 176.446L365.654 176.74L365.359 176.953L364.995 177.063L364.745 177.246L364.551 178.076L364.466 178.215L364.347 178.335L364.262 178.484L364.233 178.658L364.102 178.891L364.034 179.229L364 179.88L364.028 180.188L364.222 181.078L364.307 181.361L364.432 181.639L364.955 182.196L365.091 182.509L365.16 182.852L365.347 183.185L365.416 183.498L365.245 183.791L365.182 184.114L365.234 184.805L365.217 185.182L365.256 185.739L365.313 185.908L365.808 186.435L365.984 186.733L366.092 187.16L366.228 187.389L366.285 187.587L366.371 187.776L366.501 187.861L367.041 188.129L367.314 188.452L367.502 188.532L367.706 188.586L368.383 188.666L368.735 188.77L369.656 189.386L369.935 189.466L370.856 189.446L371.146 189.342L371.413 189.163L372.112 188.79L372.834 188.462L373.528 188.293L374.244 188.288L374.568 188.229L375.205 187.93L375.5 187.727L375.932 187.165L376.228 186.509L376.342 186.156L376.41 185.789L376.529 185.5L376.7 185.227L377.092 184.497L377.189 184.154L377.234 183.796L377.649 182.638L377.842 181.937L378.007 181.232L378.161 180.422L378.24 180.213L378.974 178.633L379.508 177.222L379.866 175.94L380.287 174.682L380.599 173.972L380.867 173.256L381.236 172.059L381.668 170.901L382.1 169.981L382.39 169.286L382.589 168.704L382.942 167.477L382.987 166.841L382.817 165.941L382.851 165.643L383.129 165.067L383.294 164.784L383.425 164.679L383.737 164.56L383.817 164.461L383.732 164.302L383.72 164.152L383.954 163.874L384.039 163.551L384.016 162.91L383.874 162.642L383.743 162.537L383.652 162.413L383.647 162.006L383.607 161.683L383.516 161.36L383.459 161.007L383.504 160.883L383.749 160.684L384.084 160.654L384.204 160.704L384.306 161.027L384.59 161.653L384.818 161.921L385.09 162.085L385.164 162.095L385.323 161.931L385.414 161.812L385.761 161.176L386 160.505L385.869 159.854L385.483 159.268Z" fill="white"/>
<path d="M212 50.4659L210.5 50.6509L209.722 51.2056L208 52.2741L208.333 53.0343L209.166 53.4659L211.111 52.3152L212 50.4659Z" fill="white"/>
<path d="M364.5 117.397L365.1 117.438L365.833 117.466L366.667 117.372L367.7 117.116L367.8 116.93L367.733 116.649L368 116.559L367.9 116.466L366.4 116.539L364.467 116.507L364.967 116.853L364 117.324L364.5 117.397Z" fill="white"/>
<path d="M398.592 76.7545L398.389 76.6918L398.103 76.5424L398.082 76.6051V76.7352L397.739 76.8557L397.65 76.8268L397.702 76.7545L397.822 76.7111L397.853 76.5858L397.926 76.4267L397.952 76.2676L397.9 75.1638L397.791 74.4841L397.936 74.0406L398.165 73.6406L398.202 73.4092L398.264 73.1826L398.087 73.1537L396.974 72.7825L396.537 72.8886L396.235 73.2067L396.064 73.4574L395.07 73.978L393.765 74.1852L393.058 74.4697L392.147 74.6576L391.804 74.6914L391.705 74.701L391.071 74.5227H390.785L390.41 74.6094L389.24 75.0047L388.387 75.077L387.721 74.9131H387.529L387.04 75.1108L386.327 75.5687L385.188 76.0411L384.897 76.0748L384.325 75.9495L383.685 75.9158L383.108 75.8049L382.775 75.8868L381.776 76.2917L380.679 76.8509L379.129 76.8654L378.832 76.7545L378.494 76.5472L377.641 75.935L377.022 75.2746L376.492 74.4552L375.946 74.0503L375.712 73.8767L375.379 73.8189H375.015L374.676 73.8912L374.297 74.0262L374.104 74.0599L373.985 74.0406L373.933 73.8623L374.26 73.896L374.703 73.4236L375.394 73.1874L376.018 72.8163L376.2 72.6668L376.32 72.4981L376.403 72.2378L376.247 71.7703L376.091 71.5148L375.623 70.9942L375.581 70.8689L375.483 70.5603L375.254 70.3675H375.249L375.171 70.6037L375.035 70.5652C361.263 82.7896 315.939 85.5083 304.72 85.9999C303.295 86.0626 302.068 85.0889 301.911 83.7778C301.74 82.3509 302.889 81.0784 304.439 80.9916L313.687 80.4806C313.796 80.0902 313.801 79.7913 313.77 79.5889H294.76C292.877 79.5889 291.348 78.1717 291.348 76.4267C291.348 74.6818 292.877 73.2646 294.76 73.2646H311.461C311.627 72.7343 311.601 72.3632 311.555 72.1559H288.94C287.171 72.1559 285.741 70.8303 285.741 69.1914C285.741 67.5524 287.171 66.2268 288.94 66.2268H293.147L293.501 65.7737L293.959 64.8771L294.994 63.4889L295.524 62.7803L295.987 62.3127C295.046 61.7439 294.432 60.7654 294.432 59.6712C294.432 57.7478 296.268 56.268 298.323 56.5379L298.869 56.6102L320.095 59.3723C320.246 58.6734 320.152 58.201 320.064 57.9889L311.477 54.2097C309.953 53.5397 309.297 51.8574 310.005 50.4402C310.686 49.0808 312.382 48.4397 313.89 48.9796C314.701 49.2737 315.658 49.5918 316.683 49.9196L315.617 49.399L314.285 48.7482L312.949 48.0927L311.617 47.4371L310.28 46.7815L308.949 46.126L307.612 45.4704L306.281 44.81L304.944 44.1496L303.612 43.4892L302.276 42.8288L300.939 42.1636L300.018 41.7057L299.025 42.154L298.245 42.5059L297.22 42.9686L296.039 43.5664L295.134 44.0243H295.093L295.051 44.0098L294.11 43.2338L295.051 44.0146L295.093 44.0243H295.134L296.039 43.5712L297.22 42.9734L298.245 42.5107L299.025 42.1588L300.018 41.7105L300.939 42.1685L302.276 42.8337L303.612 43.4941L304.944 44.1544L306.281 44.8148L307.612 45.4752L308.949 46.1308L310.28 46.7864L311.617 47.4419L312.949 48.0975L314.285 48.7531L315.617 49.4038L316.688 49.9292C322.42 51.7561 330.549 53.9108 330.549 53.9108C346.148 56.9525 355.364 53.0432 359.083 50.821L359.073 50.1847L359.182 49.7412L359.031 49.2592L358.984 48.8109L358.943 48.5699L358.969 48.2325L359.156 48.3048L359.265 48.4108L359.281 48.3192L359.27 48.2228L359.14 48.0107L358.776 47.6203L358.345 46.8972L358.22 46.3911L358.189 45.7548V45.7018L358.074 45.4752L356.92 44.6509L356.405 43.9954L355.526 43.6869L355.338 43.5567L355.203 43.3784L354.927 43.1036L354.558 42.1926L354.444 41.7105L354.392 40.7609L354.423 40.5826L354.496 40.3608L354.641 40.2982L354.751 40.2789L355.172 40.3126L354.73 39.9511L354.319 39.7004L354.095 39.3727L353.528 38.7942L352.577 36.9046L352.093 36.0418L351.776 35.3284L351.12 34.3739L350.34 32.8604L350.09 32.576L349.908 31.4191L349.789 31.0238L349.653 30.7828L349.362 30.5707L349.253 30.3104L348.951 29.7946L348.977 29.5199L348.946 28.9462L348.8 28.7245L348.457 28.5027L347.984 28.04L347.485 27.3555L347.136 26.994L347.022 26.8012L346.949 26.5891L346.824 26.3432L346.476 25.9287L346.397 25.7407L346.413 25.1815L346.304 24.767L346.21 24.5742L345.742 24.1355L345.638 23.8463L345.773 23.4944L345.997 23.1907L345.95 22.969L346.07 22.9015L346.21 22.8244L346.715 22.5303C346.715 22.5303 346.85 22.2556 346.928 21.7109C347.006 21.1614 346.928 21.1613 346.902 20.8914C346.876 20.6166 346.741 20.2937 346.715 20.0961C346.689 19.8984 346.314 19.5465 346.314 19.5465L346.117 19.4501L345.534 18.9826L345.331 18.8669H345.238L345.31 19.0115L345.42 19.1513L345.212 19.3971L344.92 19.4742L344.821 19.2911L344.66 19.0886L344.364 19.0308L344 18.8717L344.291 18.5053L344.338 18.2981L344.848 18.7174L345.014 18.7271L344.535 18.2402L344.327 18.1197L344.187 18.1631L343.537 18.3752L343.308 18.3655L342.387 17.9751L342.075 17.9269L341.992 17.9606L341.935 18.2161L341.852 18.3511L341.404 18.4186L341.014 18.5294L340.629 18.4909L341.524 18.1727L341.633 18.0378L340.65 18.3222L340.161 18.3704L340.021 18.5391L339.932 18.6789L339.792 18.7994L339.683 18.9777L339.417 18.9874L339.199 18.9585L338.866 19.0741L337.925 19.7249L337.472 19.9804L337.056 20.1635L336.723 20.2599L336.479 20.2744L336.203 20.1925L335.74 19.9322L334.929 19.6092L333.405 19.4694L333.02 19.1754L332.437 19.185L332.214 19.1223L331.402 18.621L330.066 18.3414L329.197 18.2161L327.626 17.8883L326.201 18.2161L325.764 18.1534L325.556 17.7871L325.457 17.6136L325.208 17.093L325 16.8809L324.797 16.7893L324.256 16.6929L323.689 16.7507L322.711 16.7122L322.461 16.6302L322.071 16.3555L321.791 16.2591L320.365 16.0903L319.866 15.7336L319.876 15.5312L319.928 15.3769L319.819 14.8563L319.336 14.6442L318.883 14.4803L318.238 14.3165L317.728 14.0513L317.302 13.9308L316.334 13.9597L316.007 13.8585L315.768 13.873L315.18 14.2972L314.883 14.3647H314.171L312.943 14.972L312.246 15.43L311.555 16.0759L311.305 16.4133L311.144 16.7459L311.014 17.3003L311.112 18.0956L311.274 18.5343L311.508 18.8669L311.612 19.185L311.638 19.5369L311.529 19.884L311.253 20.3756L310.415 21.3108L310.072 21.5325L309.24 21.9085L308.772 21.976L308.252 21.9037L307.508 21.5277L306.171 20.4431L305.5 20.2214L305.167 19.9948L303.826 19.5321L302.244 19.132L301.324 19.0934L300.408 18.9826L299.597 18.6885L299.243 18.4909L298.936 18.1727L298.661 17.7919L298.432 17.252L298.291 16.8375L298.281 16.2639L298.026 15.8011L297.777 15.5601L295.93 15.1938L295.68 15.0732L295.16 14.6732L294.931 14.5864L294.037 14.3357L293.517 14.3165L293.205 14.2393L292.503 13.9597L292.097 14.0128L291.025 14.3068L290.115 14.22L289.704 14.1284L288.404 13.4054L287.967 13.3283L287.541 13.1355L287.244 12.9957L287.067 13.0439L286.776 12.9716L286.688 12.9234L286.771 12.8559L286.875 12.8077L286.838 12.7402L286.542 12.5522L286.36 11.9545L286.006 11.7568L285.84 12.0461L285.642 12.0943L285.351 12.1087L285.299 11.8147L285.325 11.5688L284.602 11.6508L284.186 11.4483L283.78 11.0723L283.473 10.4312L283.447 10.1709L283.515 9.94921L283.666 9.73711L283.894 9.52984L284.826 8.90801L285.262 8.48864L285.751 7.84271L286.001 7.37032L286.459 6.71957L286.245 6.42071L286.214 6.04472L286.131 5.73622L286.141 5.47592L285.528 5.03727L285.262 4.9505L284.987 4.67092L284.747 4.20817L284.664 3.75024L284.695 3.49476L284.799 3.27784L285.127 2.96933L285.559 2.73314L286.032 1.92814L286.282 1.61L286.48 1.50395L286.339 1.20509L286.277 0.86284L285.991 0.906222L285.476 1.3256L284.935 1.48949L284.789 1.77389L284.493 1.9667L284.16 1.80763L284.274 1.53769L283.869 0.992992L283.889 0.433829L283.588 0.289217L283.312 0.269939L283 0.279574L283.01 0.414551L283.057 0.515774L282.875 0.665204L282.745 0.419368L282.833 0.279574L282.896 0.101223L282.672 0.0337387L282.475 0L280.956 0.472393L280.727 0.597719L280.072 1.10868L279.385 1.30149L278.142 1.39308L277.539 1.56662L277.206 1.48949L276.696 1.10386L276.207 0.911047L275.573 0.804998L275.666 1.20509L275.401 1.28703L274.798 1.36415L273.82 1.09422L273.57 0.824276L273.128 0.954428L272.91 1.30149L272.395 1.53769L271.448 1.74497L270.611 2.14506L270.252 2.23182L269.976 2.14023L269.42 1.71604L269.092 1.54251L268.759 1.43164H266.034L265.316 1.75943L263.792 1.79317L263.438 1.9426L262.736 2.38607L262.039 2.35233L261.014 2.49212L259.017 2.64637L258.221 2.88739L257.717 3.16697L256.947 3.47065L256.38 3.7888L255.933 4.10694L255.642 4.62754L255.371 4.84445L254.981 4.88784L254.528 4.74804H254.32L252.952 5.36987L252.479 5.65427L252.151 5.91939L251.787 6.33395L251.377 6.52676L250.846 6.90756L250.18 7.18714L249.889 7.21606L249.327 7.15822L248.76 7.09555L248.167 7.1293L247.902 7.057L247.6 7.08109L247.517 6.94131L247.361 6.57978L247.283 6.49301L247.273 6.34358L247.231 6.20379L246.976 6.48819L246.576 6.73403L246.05 6.8208L245.504 6.76777L245.218 6.60388L244.953 6.71475H244.412L243.445 6.97987L242.612 6.83526L242.03 6.59906L241.281 6.00616L240.87 5.53858L240.636 5.12403V4.76733L240.802 4.61789L240.47 4.53113L240.121 4.74804L239.84 4.85409L239.492 4.89747L238.998 4.99389L238.904 5.32649L237.801 8.18978L236.678 10.2047L236.272 10.7156L235.591 11.1446L234.426 11.7376L232.366 12.5618L231.778 12.9378L231.544 13.1403L230.879 13.9646L229.739 15.0347L229.729 15.2998L229.625 16.047L229.453 16.5194L228.543 17.6618L228.169 18.5294L228.101 19.5996V20.2696L227.981 20.66L228.044 20.8818L228.268 21.0071L228.6 21.4747L228.678 21.7591L228.559 22.4869L228.346 22.9352L228.044 23.3787L227.602 23.88L227.071 24.6561L226.275 25.5913L225.755 25.9624L224.621 26.6276L224.013 27.182L223.649 27.6062L223.306 27.8183L222.099 28.3485L220.752 28.7004L219.847 28.792L219.415 28.98L219.16 29.3993L218.786 29.7319V29.7416L218.567 30.373L218.141 31.2118L217.902 32.0071L217.678 32.4024L217.345 32.6675L216.632 33.111L216.029 33.3231L215.629 33.6653L215.348 33.7907L215.192 34.051L215.046 34.7355L214.822 35.0681L214.531 35.8152L214.287 36.225L214.151 36.7504L214.115 37.7434L213.98 38.1772L213.605 38.6641L213.189 38.8617L212.081 40.0089L211.546 40.3464L211.208 40.6549L211.057 40.9489L210.979 41.1465L211.166 40.9827L211.327 40.7754L211.478 40.6597L211.514 40.7995L211.468 40.9248L211.088 41.4792L210.937 41.8359L210.609 42.3902L210.339 42.7517L210.453 42.9349L210.365 43.1759L210.079 43.4844L209.928 44.1544L209.496 44.8823L209.023 45.0462L208.716 45.3644L208.336 46.0874L208.134 47.4178L208.118 47.5383L207.868 48.9748L208.009 49.1146L207.967 48.8591L208.024 48.5554L208.128 48.1843L208.243 47.6685H208.248L208.134 48.1843L208.03 48.5554L207.967 48.8591L208.014 49.1146L208.154 48.4687L208.227 48.3674L208.347 48.2614L208.492 48.3433L208.903 49.1146L209.2 49.587L209.366 49.6689L209.444 49.534L209.455 49.3797L209.595 49.4327L209.736 49.534L210.001 50.1847L210.344 50.7005L210.261 50.9367L210.282 51.3223L210.141 51.9104L209.694 52.7684L210.084 52.6624L209.902 52.942L209.611 52.995L209.502 53.0721L209.606 53.2842L210.079 53.6409L210.339 54.0506L210.516 54.8267L210.698 55.3618L210.802 56.1716L210.849 57.0826L210.713 58.0081L210.355 58.9626L209.964 59.6808L209.637 60.5581L209.585 60.9534L209.434 61.4017V62.6068L209.33 62.8863L208.571 64.0673L207.723 65.0603L206.984 65.4074L206.641 65.5086L206.891 65.7834L206.963 65.5906L207.166 65.5761L207.405 65.6532L207.666 65.8123L207.915 66.2317L208.212 66.4438L208.472 66.9644L208.701 67.268L208.716 67.5042H208.857L209.065 67.4223L209.205 67.4078L209.148 67.4946L208.883 67.6151L208.789 67.7645L208.846 67.9381L209.117 68.1212L209.283 68.3382L209.356 68.6081L209.444 68.9503L209.694 69.2299L209.944 69.254L210.547 68.9744L211.343 68.9407L212.123 68.8347L212.487 68.878L212.518 68.9166L212.399 68.9407H211.993L211.473 69.0275L210.968 69.0709L210.49 69.1383L210.407 69.2926V69.4083L210.173 69.3794L209.777 69.442L209.377 69.3553L209.262 69.2106L209.215 69.0034L209.065 68.8973L208.841 69.0275L208.633 69.2492L208.789 69.7602L208.805 69.9819L208.82 70.2036L208.789 70.4591L208.815 70.9363L208.758 71.0231L208.789 71.134L208.857 71.2448L208.976 71.1966L209.054 71.1484L209.153 70.9797L209.267 70.9026L209.403 71.0376L209.663 71.1388L209.699 71.1773L209.678 71.2545H209.574L209.392 71.1918L209.044 71.3123L208.815 71.4039L208.747 71.5437L208.857 71.7365L208.95 71.857L209.715 72.2523L210.063 72.1511L210.251 72.1655L210.225 72.2475L210.048 72.4114L210.022 72.6524L210.173 72.8452L210.552 73.0043L211.052 72.8934L211.161 72.9512L211.208 72.9994L211.098 73.3513L211.442 73.414L211.91 73.2694L212.289 73.0091L212.508 72.9416L213.194 72.985L213.408 72.8693H213.501L213.517 72.932L213.434 73.0187L213.345 73.038L213.127 73.1344H212.555L212.409 73.2115L212.315 73.3803V73.5249L212.56 73.8093L212.706 73.79L212.825 73.6695L213.064 73.6213L213.366 73.6887L213.506 73.8575L213.252 73.9008L213.007 73.9201L212.513 74.1129L212.373 74.3443L212.456 74.3973L212.596 74.3684L212.721 74.3829L212.737 74.4311L212.607 74.5468L212.591 74.7251L212.612 74.8553L212.82 75.0288L212.971 75.0047L213.101 75.0192L213.085 75.3469L213.2 75.3373L213.434 75.0577H213.553L213.444 75.3952L213.585 75.5783L213.564 75.8579L213.673 75.9399H213.777L213.917 75.5687L214.021 75.506L214.162 75.5205L214.333 75.6024L214.385 75.7856L214.562 76.1037L214.609 76.2387L214.843 76.0363L214.859 76.1182L214.786 76.4267L214.796 76.6051L215.306 77.3956L216.024 77.7089H216.258L216.372 77.6752L216.414 77.7427L216.435 77.921L216.622 78.1283L216.997 78.3404L217.179 78.3838L217.293 78.244L217.355 78.2344L217.324 78.432L217.444 78.6296V78.9863L217.35 79.2563L217.693 79.237L218.063 79.5599L218.146 79.7142L218.172 79.8347L218.453 80.0854L218.526 80.2107L218.432 80.4517L218.458 80.5288L218.515 80.6879L218.843 80.9241L219.108 80.9675L219.077 81.0302L218.697 81.0639L218.645 81.2663V81.4495L218.77 81.758L218.937 81.7291L219.03 81.6327L219.405 81.6616L219.54 81.5556L219.566 81.6231L219.514 81.7484L219.285 81.893L219.03 82.1581L218.827 82.1147L218.702 82.0039L218.541 81.9942L218.51 82.1437L218.708 82.3895L218.853 82.7028L219.212 82.7366L219.389 82.8812L219.477 83.1174L219.602 83.6331L219.686 83.7296L219.878 83.8019L220.112 83.9995L220.466 84.038L220.632 83.9031H220.715L220.632 84.1296L220.851 84.443L220.715 84.7081L220.7 84.8527L221.085 84.9684L222.245 85.3781L222.791 85.6239L223.306 85.9903L223.415 86.0963L224.018 86.6603L224.819 87.0026L225.251 87.2436L225.428 87.6437L225.646 87.7786L225.953 87.904L226.452 88.0148L226.848 88.2462L228.58 89.6972L229.36 90.4154L230.036 90.8974L232.47 92.0977L233.193 92.3098L234.135 92.6761L234.457 92.7147L234.384 92.6231L234.457 92.7099L234.79 92.6472L235.331 92.3628L235.814 92.2086L236.189 91.9675L236.407 91.8808L237.234 91.6494L238.592 91.1529L239.003 91.0035L239.975 90.801L241.375 90.695L241.255 90.613H240.808L240.522 90.6419L240.61 90.5359L240.756 90.4877L241.479 90.507L241.629 90.6516L241.827 90.6757L242.488 90.5889L244.225 90.4395L244.157 90.372L244.012 90.3575L242.638 90.425L242.795 90.3093L243.341 90.2515L244.001 90.2322L244.381 90.2756L244.698 90.4636L246.155 90.695L246.253 90.6178L246.461 90.1647L246.565 90.1165L246.701 90.131L246.654 90.507L246.945 90.6227L247.049 90.6419L247.07 90.695L247.268 90.7287L247.418 90.6516L247.637 90.6419L247.694 90.56L247.71 90.3527V90.1888L247.788 90.1117L247.808 89.9141L247.788 90.1165L247.71 90.1888V90.3575L247.694 90.5648L247.637 90.6468L247.418 90.6564L247.268 90.7335L247.07 90.7046H246.883L246.524 90.6612L246.435 90.748L246.805 90.8155L246.893 90.8299L247.221 90.9215L247.897 91.0083L248.802 91.2252L249.171 91.3698L249.66 91.6542H249.91L250.534 91.3554L250.919 91.0951L251.299 90.9456L252.516 90.5744L253.259 90.4588L253.618 90.2226L254.128 90.0249L254.508 89.7502L255.127 89.5766L256.203 89.085H257.353L257.566 89.0753L258.128 88.9452L258.289 88.6945L258.409 88.468L258.565 88.3185L258.793 88.2221L259.137 88.0727L260.005 87.8895L260.551 87.7738L261.857 87.6003L263.027 87.4942V87.3448L263.11 86.9062L263.162 86.7374L263.22 86.6073L263.162 86.453L263.105 86.241L263.074 85.9083L263.147 85.8071L263.173 85.6818L263.157 85.4842V84.8286L263.199 84.7563L263.251 84.7033V84.6165L263.157 84.4478L263.069 84.255V83.9754L263.038 83.7054L262.975 83.5801L263.022 83.1222L263.048 82.5389L263.022 82.2834L263.079 82.1003L263.11 81.652V81.2133L263.22 80.5192H263.225L263.105 81.2133V81.652L263.079 82.1003L263.022 82.2834L263.048 82.5437L263.022 83.1222L262.975 83.5801L263.038 83.7054L263.074 83.9754V84.255L263.157 84.4478L263.251 84.6165V84.7033L263.199 84.7563L263.157 84.8286V85.4842L263.173 85.6818L263.147 85.8071L263.074 85.9083L263.105 86.241L263.162 86.453L263.225 86.6073L263.168 86.7374L263.116 86.911L263.038 87.3496V87.4991L263.22 87.4798L264.785 87.4219L265.05 87.0893L265.253 87.0749L265.851 86.9013L265.945 86.9399L265.373 87.2147L265.217 87.2677L265.108 87.3448L265.207 87.393H266.985L267.838 87.5473L268.4 87.8895L269.035 88.386L269.539 88.9789L269.68 89.056L269.716 89.1573L269.732 89.379L269.898 89.4802L270.184 89.379L270.267 89.244L270.33 89.2103V89.3645L270.392 89.4272H270.579L270.689 89.4561L270.512 89.5525L270.221 89.5429L270.018 89.5574L269.971 89.6586L270.064 89.7887L270.491 90.0008L270.949 89.8128L270.897 89.9382L270.808 90.0635L270.637 90.0972L270.439 90.1695L270.429 90.372L270.444 90.5407L270.496 90.5986L270.741 90.6516L270.673 90.7239L270.538 90.6853L270.481 90.7191L270.663 91.1915L270.787 91.471L270.954 91.7458L271.048 91.9675L271.635 92.464L271.937 92.6424L272.119 92.7677L272.415 92.8931L272.686 92.9268L272.774 92.8882L272.8 92.6472L272.956 92.5267L272.967 92.681L272.915 92.7774L272.936 92.84L273.034 92.8545L273.487 92.7774H273.591L273.742 92.7581L273.815 92.411L273.877 92.464L273.919 92.6713L273.96 92.7629H274.189L274.309 92.7533L274.595 92.6761L274.407 92.4303V92.1121L274.387 91.9579L274.335 91.7699H274.392L274.496 91.9772L274.537 92.2905L274.616 92.5026L274.772 92.6327L275.021 92.6135L275.417 92.3098L275.443 92.0495L275.229 91.8663L275.198 91.7892L275.385 91.8711L275.562 92.0591L275.781 92.2278L276.27 92.2086L276.41 92.1073L276.431 91.9772L276.467 91.9531L276.566 92.1989L276.784 92.2905L277.221 92.3001L277.856 92.2134H278.594L278.693 91.9531L278.433 91.3023L278.485 91.2589L278.735 91.5144L278.881 91.5433L278.985 91.7169L279.219 91.7747L279.302 91.688H279.338L279.375 91.7024L279.271 92.0784L279.291 92.1652L279.39 92.2857L279.619 92.3098L279.713 92.223L279.63 91.9097L279.76 91.9772L279.91 92.1459L280.035 92.1603L280.17 92.1459L280.264 92.1603L280.347 92.2086L280.306 92.5171L280.337 92.7147L280.389 92.8882L280.514 93.0425L280.576 93.3992L280.893 93.5293L281.273 93.6402L281.408 93.7029L281.445 93.7848L281.585 93.8234L281.762 93.833L281.866 93.78L281.975 93.6306L281.928 93.4618L282.006 93.4763L282.116 93.5582H282.256L282.449 93.4329L282.501 93.4859L282.391 93.6113L282.365 93.7222L282.636 93.9439L282.646 94.0162L282.334 93.9728L282.235 94.1174L282.131 94.1608L282.298 94.4211L282.371 94.638L282.714 94.6091L282.454 94.8308L283.021 95.4189L283.13 95.6021L283.177 95.7997C284.238 96.4505 285.803 97.2747 287.905 98.0267L288.773 98.0605H289.366L289.943 98.0315L290.412 98.0701L290.609 98.1135L290.791 98.1328L291.353 98.1569L292.086 98.1231L292.336 98.1328L292.476 98.2147L292.544 98.3786H293.21L293.876 98.3883H293.21L292.544 98.3786L292.476 98.2147L292.336 98.1328L292.086 98.1231L291.353 98.1569L290.791 98.1328L290.609 98.1135L290.412 98.0701L289.943 98.0315L289.366 98.0605L289.236 98.0508H288.773L287.905 98.0219C291.899 99.4584 297.818 100.63 305.823 99.8922L305.854 99.5162V98.7594L306.239 97.723L305.849 98.7594V99.5162L305.818 99.8922C307.737 99.7138 309.765 99.4343 311.929 99.0101C311.929 99.0101 323.242 96.0118 328.589 94.0885C330.097 93.5438 331.792 94.1849 332.474 95.5491C333.186 96.9662 332.526 98.6485 331.002 99.3186L322.415 103.098C322.321 103.31 322.233 103.777 322.383 104.481L344.156 101.652C346.21 101.387 348.046 102.862 348.046 104.785C348.046 106.323 346.85 107.639 345.217 107.904L341.347 108.53L341.316 108.728L341.352 109.032L341.477 109.229L341.514 109.485L341.451 109.798L341.378 109.986L341.29 110.049L341.191 110.073L341.056 110.054L340.895 110.082L340.718 110.14L340.609 110.15L340.551 110.217L340.296 110.699L340.244 110.772L340.296 110.695L340.551 110.213L340.609 110.145L340.718 110.135L340.895 110.078L341.056 110.049L341.191 110.068L341.29 110.044L341.378 109.981L341.451 109.793L341.508 109.48L341.477 109.224L341.352 109.027L341.316 108.728L341.342 108.535L330.43 110.295C330.393 110.516 330.393 110.878 330.549 111.36H336.505L336.463 111.307L336.51 111.355H340.276L340.25 111.239L340.296 111.1L340.322 111.061L340.385 110.912L340.322 111.066L340.296 111.104L340.25 111.249L340.27 111.36H353.534C355.302 111.355 356.732 112.681 356.732 114.315C356.732 115.949 355.302 117.279 353.534 117.279H337.436L337.457 117.323L337.613 117.684L337.691 117.901L337.8 118.157L337.883 118.388H347.719C349.601 118.388 351.131 119.805 351.131 121.55C351.131 123.295 349.601 124.712 347.719 124.712H340.973L341.082 124.915L341.165 125.146L341.238 125.334L341.389 125.647L341.56 125.879L341.774 126.081L341.956 126.202L341.774 126.076L341.56 125.874L341.389 125.643L341.238 125.329L341.165 125.141L341.082 124.91L340.973 124.707H328.713C328.687 124.91 328.687 125.209 328.797 125.599L338.044 126.11C339.594 126.197 340.744 127.465 340.572 128.896C340.411 130.207 339.183 131.181 337.763 131.118C330.747 130.81 310.395 129.629 292.763 125.802L292.752 125.864V126.086L292.783 126.269L292.731 126.433L291.884 127.267L291.863 127.185L291.946 127.079L291.988 126.987L291.858 127.045L291.722 127.224V127.373L291.93 127.85L292.154 128.265L292.268 128.684L292.305 129.084L292.523 129.407L292.648 129.856L293.101 130.53L293.225 130.959L293.486 131.2L293.73 131.519L293.777 131.842L294.042 132.295L294.078 132.622L293.902 133.76V134.613L293.626 135.433L293.381 135.862L292.877 136.479L292.17 136.826L291.67 137.154L291.431 137.819L290.464 138.903L290.334 139.747L289.985 140.499L289.709 142.09L289.132 143.719L288.971 144.427L288.836 144.75L288.648 144.982L288.508 145.112L288.232 145.281L288.284 145.502L288.362 145.695L288.425 147.083V147.623L288.316 148.072L288.212 149.094H288.222L288.165 149.677L288.196 150.448L288.316 151.128L288.804 151.856L289.054 152.4L289.205 152.593L289.855 153.167L290.214 153.644L291.842 156.657L292.196 157.086L292.518 158.021L292.981 159.105L294.063 160.648L294.198 161.019L294.437 161.467L295.41 162.644L295.8 163.367L295.977 164.075L295.961 164.364L295.894 164.687L295.795 164.649L295.738 164.572L295.639 164.818L295.696 165.126L295.837 165.695V166.244L295.899 166.712L295.862 167.859L295.915 168.288L296.268 169.267L296.658 169.946L296.851 170.645L296.799 171.253L296.809 171.571L296.924 172.072L296.872 172.622L297.111 173.287L297.215 174.318L297.574 174.627L297.693 174.863L297.761 175.128L297.652 175.326L297.678 175.673L297.907 176.271L298.109 177.081L298.26 177.403L299.311 179.091L299.789 179.635L300.112 179.867L301.027 180.758L301.339 180.995L301.449 180.864L301.839 180.614L302.016 180.546L301.844 180.614L301.454 180.864L301.345 180.995L301.438 181.067L302.161 182.152L302.749 183.318L303.415 185.391L303.857 186.422L304.777 188.148L305.506 189.247L306.135 190.071L306.265 190.337L306.541 191.493L306.593 191.942L306.582 192.66L306.374 193.113L306.026 193.412L305.776 193.494L305.578 193.291L305.386 193.422L305.261 193.658L305.339 194.072L305.563 194.333L305.656 194.66L305.885 194.829L306.114 195.297L306.405 195.489L306.541 195.779L306.884 196.405L306.951 196.651L306.977 196.936L306.671 197.095L306.613 197.514L306.665 197.871L306.827 198.203L306.967 198.362V197.803L307.076 197.62L307.17 197.548L307.368 197.519L307.654 197.5L307.773 197.533L307.929 197.615L307.976 197.866L307.987 198.068L307.971 198.203L307.987 198.415L308.184 198.406L308.325 198.353L308.73 198.372L308.871 198.579L309.136 198.565L309.23 198.642L309.375 198.815L309.354 199.061L309.287 199.201L309.547 199.172L310.223 199.635L310.821 199.645L311.034 199.702L311.3 199.736L312.454 198.869L312.72 198.724L313.401 198.652L313.703 198.483L314.004 198.425L314.202 198.415L314.727 198.55H315.008L315.575 198.444H316.23L317.5 197.495L317.968 197.447L318.358 197.312H318.862L319.393 197.475L320.345 197.533L320.573 197.495L321.229 197.234L321.541 197.259L322.893 197.471L324.043 197.822L324.688 197.803L324.906 197.461L325.177 197.191L325.639 197.152L326.498 197.365L326.768 197.389L326.945 197.312L326.987 196.81L327.413 196.463L327.923 196.386L329.15 196.535L329.665 196.372L330.955 195.793L331.751 195.297L332.859 194.482L333.134 194.352L334.117 193.475L334.773 193.031L335.907 192.019L336.666 191.132L337.654 190.134L338.356 189.517L338.622 189.377L339.017 189.069L339.901 188.008L340.411 187.237L340.941 186.398L341.54 185.314L341.945 184.808L342.356 183.887L342.814 183.255L344.047 181.954L344.364 181.882L344.541 181.8L344.743 181.67L345.466 181.028L345.716 180.667L346.158 179.79L346.496 178.059L346.632 177.577L347.032 176.526L347.136 175.856L347.146 175.794L347.271 174.126L347.329 173.639L347.219 173.648L347.157 173.774L347.032 174.169L346.907 174.092L346.814 173.981L346.632 173.851L346.476 173.658L346.314 173.407L346.496 173.113L346.684 172.882L346.876 172.376L347.344 171.937L348.421 171.282L348.93 171.074L349.783 170.727L351.932 170.024L353.003 169.537L353.461 169.228L353.736 168.915L354.246 168.182L354.392 167.883L354.537 167.204L354.48 167.093H354.376L354.314 167.281L354.137 167.242L354.059 167.131L354.08 166.876L354.407 165.406L354.636 164.784L354.444 164.249L354.402 163.931L354.548 163.145V162.938L354.517 162.788L354.444 162.624L354.413 162.441L354.309 162.417L354.205 162.591L354.153 162.976L354.173 163.217L354.106 163.362L353.918 163.203L353.944 162.822L353.955 162.2L353.799 161.434L353.783 161.125L353.393 160.417L353.362 159.862L352.982 158.787L352.691 158.416L352.379 158.117L352.212 157.871L352.192 157.683L352.337 156.821L352.322 156.377L352.353 156.083L352.233 155.934L352.056 155.755L352.254 155.779L352.618 156.083H352.727L352.889 156.064L354.048 155.191L354.844 154.29L355.406 153.827L355.76 153.605L356.165 153.413L356.327 153.495L356.472 153.466L356.55 153.08L356.727 153.278L356.94 153.215L356.961 153.008L357.2 152.69L357.315 152.535L357.918 151.962L358.319 151.475L358.376 151.34L358.433 151.104L358.6 150.945L358.74 150.877L359.281 150.419L360.025 149.961L360.935 149.479L361.517 149.286L361.627 149.166L361.788 149.074L362.443 148.877L363.145 148.631L363.249 148.554L363.369 148.539L363.494 148.563L363.848 148.53L364.045 148.428L364.404 148.342L364.675 147.99L364.841 147.855L365.907 147.281L366.297 146.982L366.521 146.895L366.37 146.515L366.563 146.399L366.906 146.327L367.228 145.898L367.254 145.792V145.666L367.53 145.367L367.826 145.093L368.508 144.317L368.763 143.748V143.565L368.669 143.357L368.737 143.271L368.882 143.227L368.862 143.083L368.898 142.866L369.106 142.634L369.272 142.499L369.298 142.306L369.231 142.085L369.246 141.911L369.205 141.82L369.22 141.636L369.101 141.511H368.966L368.742 141.824L368.711 141.593L368.721 141.429L368.924 141.164V140.962L368.747 140.918L368.617 140.836L368.596 140.716L368.581 139.978L368.497 139.381V139.144L368.456 138.961L368.56 138.725L368.477 138.513L368.523 138.325L368.508 138.04L368.534 137.886L368.523 137.693H368.154V137.563L368.185 137.481L368.477 137.269L368.529 137.096L368.555 136.773L368.466 136.483L368.295 136.392L368.393 136.132L368.357 135.92L368.336 135.409L368.419 135.105L368.362 134.936L368.315 134.686L368.149 134.194L368.237 133.644L368.066 133.336L368.118 133.162L368.315 132.936L368.461 132.637L368.409 132.531L368.352 132.459L368.378 132.28L368.601 132.02L368.295 131.846L368.487 131.716L368.643 131.572L368.378 131.326L368.232 131.056L367.91 131.287L367.405 131.644L366.911 131.996L367.405 131.649L367.91 131.292L368.232 131.061L368.201 131.003L368.154 130.916L368.024 130.767L367.54 130.473L367.322 130.371L367.171 130.251L366.89 130.26L366.781 130.087L366.552 129.904L366.167 129.846L366.329 129.619L366.303 129.417L366.173 129.123L366.084 128.742L365.886 128.299L365.928 127.73L365.398 127.079L365.476 126.983L365.507 126.872L365.195 126.505L364.992 125.782L365.007 125.541L365.096 125.257L365.377 124.654L365.34 124.139L365.07 123.965L364.95 124.071V123.367L365.132 122.909L365.356 122.562L365.595 122.345L365.668 122.085L365.46 121.709L364.945 121.545L364.779 121.208L364.493 120.87L364.331 120.726L364.092 120.61L363.79 120.287L363.738 119.959L363.598 119.607L363.64 119.106L363.894 118.455L364.082 118.176L364.305 117.433L364.388 117.265L364.472 117.004L364.482 116.783L364.701 116.252L364.758 116.036L364.669 115.997L364.753 116.031L364.768 115.963L364.935 115.819L365.184 115.862L365.502 115.481L365.907 114.638L365.964 114.551L366.048 114.416L366.173 114.223L366.214 114.127L366.256 114.016L366.417 113.688L366.537 113.148L366.635 113.042L366.75 112.801L366.901 112.565L367.244 112.305L367.28 112.107L367.468 111.712L367.426 111.196L367.546 110.859L367.702 110.704L368.055 110.516L368.721 110.473L369.189 110.092L369.21 109.947L369.428 109.779L369.496 109.586L369.449 109.441L369.402 109.147L369.475 109.195L369.574 109.229L369.626 109.065L369.694 108.959L369.871 109.022L370.006 109.041L370.453 108.945L370.786 108.742L371.192 108.299L371.467 107.995L371.748 107.614L372.065 107.031L372.185 106.896L372.289 106.65L372.44 106.438L372.794 106.135L373.106 105.831L373.61 105.243L373.792 105.103L374.058 104.756L374.26 104.573L374.479 104.38L376.585 102.326L377.282 101.719L378.161 101.078L378.999 100.345L380.637 99.2656L383.16 97.9737L383.784 97.5495L386.088 95.4575L387.851 93.6932L389.141 92.3291L389.859 91.1481L391.014 89.7454L392.127 87.9859L392.246 87.3786L392.641 86.4193L392.959 85.865L393.578 85.0696L393.859 84.6213L394.108 84.1248L394.358 83.3343L395.06 82.7173L395.57 81.9123L395.669 81.6231L395.97 81.035L396.548 80.3457L396.678 80.0034L397.068 79.5166L397.088 78.7791L397.203 78.2199L397.271 77.357L397.359 77.1401L397.655 77.01L398.139 76.8895L398.306 76.9618L398.628 77.0052L398.644 76.9088L398.586 76.769L398.592 76.7545ZM375.295 70.999L374.952 71.105L375.29 70.999H375.295ZM283.078 31.9927L282.917 31.7951L282.802 31.4191L282.917 31.7902L283.078 31.9879V31.9927ZM284.695 17.5172L284.883 17.3147L285.028 17.064L285.065 16.9291L285.273 16.7893L285.517 16.6495L285.268 16.7893L285.06 16.9291L285.023 17.064L284.878 17.3195L284.69 17.522L284.695 17.5172ZM282.365 21.894L282.839 21.7157L283.083 21.5807L283.187 21.465L283.541 21.0023L283.723 20.742L283.973 20.3901L284.082 20.1443V19.9177L284.045 19.6429L283.848 18.9826L283.686 18.3366L283.848 18.9777L284.045 19.6381L284.082 19.9129V20.1394L283.967 20.3853L283.718 20.7372L283.536 20.9926L283.182 21.4554L283.078 21.5711L282.833 21.706L282.36 21.8844L282.027 22.0435L282.355 21.8844L282.365 21.894ZM280.155 16.0614L280.644 16.3892L280.16 16.0662L280.155 16.0614ZM212.019 60.7461L211.608 60.8039L211.078 60.7847L210.755 60.7365L210.646 60.6593L210.49 60.6401L210.303 60.6834L210.5 60.6401L210.651 60.6593L210.76 60.7365L211.083 60.7847L211.613 60.8039L212.019 60.7461ZM243.757 70.4205L243.658 70.1699L243.757 70.4254V70.4205ZM232.293 25.919L232.21 25.9913L232.293 25.9142V25.919ZM212.305 60.6256H212.31L212.69 60.5533H213.163L213.402 60.4954L213.153 60.5533H212.68L212.3 60.6256H212.305ZM213.21 68.6949L213.153 68.8298L213.064 68.9793L212.95 69.066L212.404 69.1191L211.915 69.1721L211.655 69.2203L211.478 69.254L211.426 69.7023L211.483 69.254L211.66 69.2203L211.92 69.1721L212.409 69.1191L212.955 69.066L213.07 68.9793L213.158 68.8298L213.215 68.6949H213.21ZM213.486 60.3557H213.491L213.59 60.3942L213.678 60.3798L213.585 60.399L213.486 60.3557ZM217.054 61.7487L216.892 61.7198L216.716 61.5752L216.617 61.4306L216.596 61.286L216.289 60.9968L215.691 60.5629L215.041 60.3605L214.339 60.3894L213.943 60.3701L213.855 60.3026H213.86L213.949 60.3653L214.344 60.3846L215.046 60.3557L215.696 60.5581L216.294 60.9919L216.601 61.2812L216.622 61.4258L216.721 61.5704L216.898 61.715L217.059 61.7391L217.054 61.7487ZM217.574 47.601H219.259L219.233 47.2298L219.212 46.9358L219.186 46.5453L219.16 46.1549L219.134 45.7644L219.108 45.3933L219.082 45.0221L219.061 44.6799L219.041 44.3665L219.004 44.1834L218.869 43.8267L218.838 43.6483L218.874 43.4603L218.963 43.282L219.212 42.9542L219.587 42.7035L220.024 42.4143L220.356 42.1926L220.528 42.1395L221.048 42.0624L221.459 41.8937L221.854 41.7298L222.021 41.6382L222.042 41.3345V34.4559H231.326V30.7298H231.331V34.4607H222.047V41.3345L222.026 41.6382L221.86 41.7298L221.464 41.8937L221.053 42.0624L220.533 42.1395L220.362 42.1926L220.029 42.4143L219.592 42.7035L219.212 42.9542L218.963 43.2771L218.874 43.4555L218.838 43.6435L218.869 43.8218L219.004 44.1834L219.041 44.3665L219.061 44.6799L219.082 45.0221L219.108 45.3933L219.134 45.7644L219.16 46.1549L219.186 46.5453L219.212 46.9406L219.233 47.2347L219.259 47.601H217.558H217.574ZM227.305 63.7781L227.128 63.7444L226.936 63.6913L227.123 63.7444L227.3 63.7781H227.305ZM225.173 64.3999H225.027H225.168H225.173ZM220.637 78.5573L220.544 78.7742L220.637 78.567L220.7 78.3693L220.637 78.5573ZM221.251 65.2869L220.955 65.0941L220.814 64.8675L220.58 64.694L220.258 64.5783L220.05 64.4481L219.951 64.2987L219.831 64.2023L219.706 64.1493L219.696 64.0962L219.727 64.0239L219.696 63.889L219.503 63.5853L219.327 63.4455L219.176 63.4696L219.093 63.431L219.041 63.3636L219.02 63.2671L218.916 63.1852L218.739 63.1466L218.593 62.9249L218.484 62.5152L218.344 62.1922L218.172 61.9608L218.047 61.8741L217.954 61.8596L217.922 61.8259L217.896 61.7584L217.761 61.7343H217.766L217.902 61.7536L217.928 61.821L217.959 61.8548L218.052 61.8692L218.177 61.956L218.349 62.1874L218.489 62.5104L218.598 62.9201L218.744 63.1418L218.921 63.1804L219.025 63.2623L219.046 63.3587L219.098 63.4262L219.181 63.4648L219.332 63.4407L219.509 63.5805L219.696 63.8841L219.727 64.0191L219.696 64.0914L219.706 64.1445L219.831 64.1975L219.951 64.2939L220.05 64.4433L220.258 64.5735L220.58 64.6892L220.814 64.8627L220.955 65.0892L221.251 65.2821L221.314 65.3013L221.797 65.47L221.308 65.3013L221.246 65.2821L221.251 65.2869ZM224.419 85.0166L224.138 85.2287L223.914 85.489L224.138 85.2239L224.419 85.0118L224.528 84.9105L224.419 85.0166ZM225.579 80.3023L225.657 80.1095L225.75 79.9407L225.657 80.1191L225.579 80.3023ZM225.917 81.8496L225.781 82.187L225.714 82.2834L225.688 82.3509L225.714 82.2738L225.781 82.1774L225.917 81.84L226.265 81.5026L225.917 81.8496ZM226.582 82.8185L226.229 82.9005L226.582 82.8137V82.8185ZM226.874 82.0473L226.863 82.1003L226.874 82.0424V82.0473ZM229.448 72.0836L229.318 72.0932L229.089 72.1559L228.808 72.2764L228.611 72.3824L228.455 72.6476L228.346 72.6813L228.158 72.6476L227.628 72.4547L227.191 72.2957L226.889 72.2041L226.707 72.2619L226.614 72.2908L226.353 72.3969L226.01 72.7873L225.927 72.9175L225.859 72.9609L225.766 73.0284H225.677L225.605 72.985L225.584 72.9561L225.407 72.6765L225.214 72.368L225.053 72.2282H224.856L224.684 72.3198L224.856 72.2234H225.053L225.214 72.368L225.407 72.6765L225.584 72.9561L225.605 72.985L225.677 73.0332H225.766L225.859 72.9609L225.927 72.9175L226.01 72.7873L226.353 72.3969L226.614 72.2908L226.707 72.2619L226.889 72.2041L227.191 72.2957L227.628 72.4547L228.158 72.6476L228.346 72.6813L228.455 72.6476L228.611 72.3824L228.808 72.2764L229.089 72.1559L229.318 72.0932L229.448 72.0836ZM230.957 72.985V73.2646L230.946 73.5827V73.2646L230.957 72.985ZM231.445 75.4144L231.555 75.4241L231.674 75.4L231.924 75.265L232.116 75.3132L232.304 75.4144L232.116 75.3084L231.924 75.2602L231.674 75.3952L231.555 75.4193L231.445 75.4096V75.4144ZM233.859 80.4083L233.802 80.3264L233.692 80.23L233.474 80.1336L233.692 80.2252L233.802 80.3216L233.864 80.4131L233.859 80.4083ZM234.025 81.5508L234.103 81.7628L234.025 81.5604L233.843 81.3579L233.38 81.1844V81.1748L233.843 81.3483L234.025 81.5508ZM233.531 79.5407L233.349 79.5696L233.157 79.584L232.995 79.4973L232.86 79.3286L232.995 79.4925L233.157 79.5792L233.349 79.5648L233.536 79.531L233.531 79.5407ZM233.193 82.8619L233.105 82.7992L232.99 82.8089L232.85 82.7655L232.637 82.6643L232.527 82.5775L232.631 82.6594L232.845 82.7607L232.985 82.804L233.105 82.7944L233.193 82.8571V82.8619ZM232.023 84.5008L231.94 84.4237L231.888 84.3948L231.934 84.4189L232.018 84.5008H232.023ZM233.292 87.7015L233.047 87.6678L232.876 87.6967L232.673 87.6871L232.439 87.6148L232.278 87.5328L232.127 87.3737L231.986 87.2484L231.872 87.2629L231.732 87.2339L231.596 87.1761L231.555 87.1327L231.596 87.1713L231.732 87.2291L231.867 87.2581L231.981 87.2436L232.122 87.3689L232.272 87.528L232.434 87.6099L232.668 87.6822L232.871 87.6919L233.042 87.663L233.287 87.6967L233.547 87.8317L233.287 87.7015H233.292ZM234.722 88.8247L234.686 88.8439L234.597 88.8536L234.259 88.6849L233.994 88.656L233.812 88.5113L233.994 88.6511L234.259 88.6801L234.597 88.8488L234.686 88.8391L234.722 88.8198L234.764 88.8536L234.722 88.8247ZM235.919 77.6463L235.736 77.492L235.586 77.4486L235.742 77.492L235.924 77.6463H235.919ZM236.298 77.1209L236.35 77.1112L236.293 77.1209H236.298ZM237.635 76.5617H237.474L237.245 76.4894L237.474 76.5569H237.635V76.5617ZM238.717 77.5209L238.488 77.5016L238.264 77.4197L238.15 77.3426L238.139 77.2944L238.212 77.1835L238.275 77.0582V76.9762L238.207 76.7786L238.145 76.5617L238.171 76.4604L238.113 76.1423L238.165 76.4604L238.139 76.5617L238.202 76.7738L238.28 76.9714V77.0534L238.212 77.1787L238.139 77.2896V77.3378L238.264 77.4149L238.488 77.492L238.717 77.5113V77.5209ZM239.018 63.4985H229.968H239.013H239.018ZM240.319 77.0919L240.527 77.2076L240.319 77.0967V77.0919ZM243.648 78.7067L243.465 78.9622H243.257L243.049 78.8755L243.257 78.9574H243.465L243.648 78.7067ZM246.711 86.0096L247.065 85.5999L246.711 86.0144V86.0096ZM264.276 53.4625L264.385 53.3083L264.426 53.1878L264.504 53.0962L264.432 53.1878L264.39 53.3083L264.281 53.4625H264.276ZM248.095 83.1993L247.756 83.4355L247.736 83.5271L247.647 83.7247L247.574 83.8501L247.465 84.0766L247.288 84.6743L247.226 85.1708L247.216 85.3251L247.148 85.4311L247.138 85.4504L247.148 85.4263L247.216 85.3203L247.226 85.166L247.288 84.6695L247.465 84.0718L247.574 83.8452L247.647 83.7247L247.736 83.5271L247.756 83.4355L248.095 83.1993ZM248.037 80.0805L248.079 79.9167L248.037 80.0854V80.0805ZM248.089 80.6783L248.147 80.7698L248.089 80.6831V80.6783ZM248.453 82.8137L248.329 82.8426L248.251 82.8764L248.23 82.9438L248.251 82.8715L248.329 82.8378L248.453 82.8089V82.8137ZM256.266 78.9478L256.276 78.9092L256.333 78.8996L256.276 78.914L256.266 78.9526V78.9478ZM256.531 77.4776V77.4197L256.578 77.3378L256.536 77.4197V77.4776H256.531ZM257.311 75.4626L257.051 75.535H256.895V75.4771L256.869 75.4434L255.964 75.2409L255.329 75.1204L254.684 74.9854L254.648 75.1108L254.554 75.1927H254.414L254.32 75.1782L254.258 75.2746L254.149 75.4048L253.998 75.4675L253.852 75.5446L253.769 75.6121H253.712L253.566 75.4482L253.369 75.4337L253.004 75.4626L252.838 75.4193L252.614 75.4L252.084 75.4337L251.236 75.3662L251.096 75.4L251.059 75.4289L250.222 75.4385L249.301 75.4482L248.531 75.4578H247.855V75.4385V75.4723H248.531L249.301 75.4578L250.222 75.4482L251.059 75.4385L251.096 75.4096L251.236 75.3759L252.084 75.4434L252.614 75.4096L252.838 75.4289L253.004 75.4723L253.369 75.4434L253.566 75.4578L253.712 75.6217H253.769L253.852 75.5494L253.998 75.4723L254.149 75.4096L254.258 75.2795L254.32 75.1831L254.414 75.2023H254.554L254.648 75.1156L254.684 74.9902L255.329 75.1252L255.964 75.2457L256.869 75.4482L256.89 75.4819V75.5446H257.051L257.311 75.4723L258.029 75.4434L257.311 75.4675V75.4626ZM258.96 74.7299H258.804L258.71 74.7541L258.804 74.7251H258.96V74.7299ZM259.262 78.1379L259.225 78.0464L258.799 77.7812L258.19 77.4052L257.727 77.1209L257.696 77.1016L257.649 77.0293L257.696 77.0967L257.727 77.116L258.19 77.4004L258.799 77.7764L259.225 78.0415L259.262 78.1331V78.1379ZM259.49 79.907L259.886 80.2926L259.979 80.5192L259.99 81.2471V81.8014L260.047 82.5534L259.995 81.8014V81.2471L259.979 80.5192L259.886 80.2926L259.49 79.907ZM259.787 85.8794L259.927 86.1783L259.953 86.4482L259.99 86.535L259.959 86.4482L259.933 86.1783L259.792 85.8794H259.787ZM260.473 87.6919L260.38 87.3496L260.479 87.6919H260.473ZM261.259 71.8474L261.285 71.7895L261.259 71.8426V71.8474ZM263.017 63.9565L262.268 63.9806L261.342 64.0095L260.707 64.0288L259.901 64.0673L259.152 64.1059L258.653 64.4963L258.206 64.8675L258.169 64.882L257.53 64.9543L256.734 64.8916H256.323L256.162 64.9302L256.13 65.07L256.094 65.1953L256.136 65.07L256.167 64.9302L256.328 64.8868H256.739L257.535 64.9543L258.174 64.882L258.211 64.8675L258.658 64.4963L259.158 64.1059L259.907 64.0673L260.713 64.0288L261.347 64.0095L262.273 63.9806L263.022 63.9565L263.891 63.9275L263.917 63.7492L263.969 63.7058H264.052L264.692 63.7974L264.052 63.701H263.969L263.917 63.754L263.891 63.9324L263.022 63.9613L263.017 63.9565ZM267.844 68.4346L267.344 68.825L267.204 68.8732L267.084 68.9359L266.918 70.0012L266.783 70.3193L266.528 70.7435L266.028 71.1484L265.685 71.3943L265.675 71.722L265.649 72.2619V72.6331L265.664 72.8741L265.607 72.9898L265.586 73.0959L265.607 73.2549L265.69 73.3272L265.737 73.4236L265.706 73.5056L265.545 73.602L265.43 73.7707L265.253 74.1178V74.3925L265.669 74.9662L265.716 75.024L265.825 75.1156L265.883 75.2216L265.935 75.506L265.966 75.8242L265.997 76.0363L266.2 76.3399L266.21 76.4604L266.07 76.9088L266.034 76.9569L265.997 76.9714L265.779 76.9328L265.685 76.9811L265.565 77.1353L265.493 77.2896V77.3522L265.68 77.6366L265.56 78.0415L265.435 78.297L265.212 78.4416L265.009 78.4754L264.868 78.5428L264.785 78.6344L264.796 78.9237L264.499 79.1888L264.338 79.3768L264.26 79.4876L264.296 79.8299L264.192 80.177L264.01 80.4517L263.599 80.5096L264.005 80.4517L264.187 80.177L264.291 79.8299L264.26 79.4876L264.338 79.3768L264.499 79.1888L264.796 78.9237L264.785 78.6344L264.868 78.5428L265.009 78.4754L265.212 78.4416L265.435 78.297L265.56 78.0415L265.68 77.6318L265.487 77.3474V77.2847L265.565 77.1305L265.685 76.9762L265.779 76.928L265.997 76.9666L266.034 76.9569L266.065 76.9088L266.205 76.4604L266.195 76.3399L265.992 76.0363L265.961 75.8242L265.929 75.506L265.877 75.2216L265.82 75.1156L265.711 75.024L265.664 74.9662L265.243 74.3925L265.253 74.1178L265.43 73.7707L265.545 73.602L265.706 73.5056L265.737 73.4285L265.69 73.332L265.607 73.2549L265.591 73.1007L265.612 72.9946L265.669 72.8789L265.649 72.6379V72.2668L265.68 71.7269L265.69 71.3991L266.034 71.1532L266.533 70.7483L266.788 70.3241L266.923 70.006L267.089 68.9407L267.209 68.878L267.349 68.8298L267.849 68.4394L268.234 68.2948L267.854 68.4394L267.844 68.4346ZM268.52 68.208L268.962 68.1357L268.525 68.208H268.52ZM270.611 67.8754L270.46 67.9333L270.127 68.1453L269.732 68.1839L269.42 68.1743L269.726 68.1839L270.122 68.1453L270.455 67.9333L270.605 67.8754L270.819 67.8368L270.611 67.8754ZM275.323 70.0783L275.188 70.1554L275.042 70.1699L275.182 70.1554L275.323 70.0783ZM283.952 86.1494L283.894 86.0915L283.952 86.1446V86.1494ZM283.9 69.4372L284.025 69.4083L283.905 69.4372H283.9ZM286.464 87.2725L286.391 87.1472L286.261 86.6507L286.391 87.152L286.464 87.2725ZM298.791 84.2935L298.645 84.5008L298.791 84.2887V84.2935ZM295.925 88.6752L296.034 88.6849H296.133L296.195 88.762L296.133 88.6801H295.925V88.6752ZM298.005 94.45L298.302 94.7585L298.572 95.0429L298.9 95.3611L298.572 95.0477L298.302 94.7633L298.005 94.4548V94.45ZM308.626 91.3409L307.966 92.2905L307.596 92.6568L307.3 92.7484L307.227 92.9798L307.373 93.3462L307.409 93.7655L307.305 94.4789L307.342 94.9947L307.186 94.9128L307.035 94.6717L306.962 94.6236L306.525 94.7344L306.301 94.8308L306.182 94.9272L306.088 94.9417L305.948 94.8115L305.838 94.7874L305.667 94.8115H305.49L305.376 94.7923L305.303 94.8067L305.095 94.7296L304.346 94.532L304.216 94.4645L304.065 94.4741L303.675 94.6477L303.467 94.6959L302.848 94.8019L302.187 94.8549H301.932L301.755 94.9369L301.932 94.8597H302.187L302.848 94.8019L303.467 94.6959L303.675 94.6477L304.065 94.4741L304.216 94.4645L304.346 94.532L305.095 94.7296L305.303 94.8067L305.376 94.7923L305.49 94.8115H305.667L305.838 94.7874L305.948 94.8115L306.088 94.9417L306.182 94.9272L306.301 94.8308L306.525 94.7344L306.962 94.6236L307.035 94.6717L307.186 94.9128L307.342 94.9947L307.305 94.4789L307.409 93.7655L307.373 93.3462L307.227 92.9798L307.3 92.7484L307.596 92.6568L307.966 92.2905L308.626 91.3409ZM341.446 96.5083L341.436 96.6288L341.222 97.0675L341.113 97.4483L341.228 97.0675L341.441 96.6288L341.451 96.5083H341.446ZM338.174 92.1363L337.826 92.0109L337.597 92.0736L337.363 92.3676L336.916 92.6424L336.713 92.652L336.453 92.5026L336.125 92.3966L335.532 92.3483L335.288 92.4785L334.97 92.6906L334.7 92.8159L334.534 92.8304L334.377 92.7774L334.201 92.7484H334.045L333.727 92.5508L334.045 92.7436H334.201L334.377 92.7774L334.534 92.8304L334.7 92.8159L334.97 92.6906L335.288 92.4785L335.532 92.3483L336.125 92.3966L336.453 92.5026L336.713 92.652L336.916 92.6424L337.363 92.3676L337.597 92.0736L337.826 92.0109L338.174 92.1363ZM344.333 94.4066L344.197 94.2476L344.083 94.1656L343.615 94.4259L343.386 94.4886L343.199 94.4789L342.855 94.3343L342.481 94.209L342.861 94.3343L343.204 94.4789L343.391 94.4886L343.62 94.4259L344.088 94.1656L344.203 94.2476L344.338 94.4066H344.333ZM349.014 94.1415L348.936 94.2042L348.795 94.2861L348.936 94.1994L349.014 94.1367V94.1415ZM350.158 106.554H350.153L350.356 106.646H350.361L350.163 106.554H350.158ZM350.475 81.7677L350.413 81.8641L350.267 82.0039L350.08 82.1292L349.612 82.1629H349.222L348.946 82.1292L348.566 82.1196L348.207 82.1485L348.561 82.1196L348.941 82.1292L349.217 82.1581H349.607L350.075 82.1292L350.262 82.0039L350.408 81.8641L350.47 81.7677H350.475ZM350.579 93.9391L350.725 93.9873L350.584 93.9439L350.579 93.9391ZM350.959 94.344H350.954L351.302 94.4452H351.307L350.959 94.344ZM352.577 97.2796L352.488 97.2169L352.571 97.2748L352.623 97.2892L352.571 97.2796H352.577ZM353.794 90.0683L353.731 89.996V89.8755L353.742 89.8032L353.752 89.7936L353.742 89.8803V90.0008L353.804 90.0731H353.794V90.0683ZM355.838 92.4303L355.718 92.3387L355.557 92.0398L355.349 91.8277L355.12 91.553L355.099 91.1866L355.162 90.7865L355.219 90.6516L355.182 90.5214L355.193 90.3383L355.068 90.1744H355.073L355.203 90.3431L355.193 90.5263L355.224 90.6564L355.167 90.7914L355.104 91.1915L355.125 91.5578L355.354 91.8326L355.562 92.0447L355.723 92.3435L355.832 92.4303H355.838ZM288.669 149.055L288.976 148.901L288.674 149.055H288.669ZM291.129 148.737L291.244 148.669L291.135 148.737H291.129ZM302.686 179.428L302.525 179.597L302.432 179.862L302.343 179.997L302.302 180.219L302.281 180.378L302.192 180.546L302.099 180.614L302.187 180.546L302.276 180.378L302.296 180.219L302.338 179.997L302.426 179.862L302.52 179.597L302.681 179.428L302.796 179.389L302.686 179.428ZM309.23 181.713L309.126 181.872L309.23 181.718V181.713ZM309.786 181.163L309.947 180.908L309.791 181.163H309.786ZM311.159 167.633V164.408V169.252H311.164V167.628L311.159 167.633ZM311.159 171.132V180.546V169.937V171.132ZM313.937 161.53V157.023L313.926 155.905V160.397L313.937 161.53ZM319.986 171.393L319.731 171.46L319.632 171.494L319.434 171.624L319.232 171.875L319.065 172.265L319.003 172.506L318.815 173.017L318.566 173.629L318.446 173.808L318.311 173.938L318.092 174.053L317.385 174.54L317.031 175.095L316.808 175.254L316.537 175.331L316.308 175.379L316.184 175.471L316.043 175.75L315.924 175.847L315.788 175.885L315.383 175.851L315.783 175.885L315.918 175.847L316.038 175.745L316.178 175.466L316.303 175.374L316.532 175.326L316.803 175.249L317.026 175.09L317.38 174.535L318.087 174.049L318.306 173.933L318.441 173.803L318.561 173.624L318.81 173.012L318.997 172.501L319.06 172.26L319.226 171.87L319.429 171.619L319.627 171.489L319.726 171.455L319.98 171.388L320.308 171.325L319.986 171.388V171.393ZM319.757 150.332L318.519 150.554L317.687 150.704L316.673 150.887L316.371 150.94L316.667 150.887L317.682 150.704L318.514 150.554L319.752 150.332L320.62 150.173L320.064 149.725L319.434 149.214L318.784 148.645L318.295 148.202L318.056 147.946L317.624 147.609L317.312 147.445L317.193 147.363L316.886 146.466L316.719 145.642L316.891 146.466L317.198 147.363L317.317 147.445L317.63 147.609L318.061 147.946L318.306 148.202L318.795 148.645L319.445 149.214L320.074 149.725L320.631 150.173L319.762 150.332H319.757ZM320.86 132.41L320.683 132.43L320.007 132.69L320.688 132.43L320.865 132.41H320.86ZM347.963 128.887L347.828 128.829H347.708L347.62 128.92L347.526 128.911L347.407 128.877L347.521 128.911L347.615 128.92L347.703 128.829H347.823L347.953 128.891L347.963 128.887ZM347.443 140.475L347.537 140.436L347.708 140.301L347.833 140.253L347.953 140.412L347.833 140.258L347.708 140.306L347.537 140.441L347.443 140.48V140.475ZM347.334 137.404L347.417 137.496L347.339 137.404H347.334ZM345.529 127.609L345.846 127.667L345.997 127.817L346.335 127.966L346.746 128.101L347.042 128.255L347.193 128.323L347.037 128.255L346.741 128.101L346.33 127.966L345.992 127.817L345.841 127.667L345.524 127.609H345.529ZM344.13 127.002L344.317 127.055L344.405 127.108L344.416 127.31L344.473 127.402L344.728 127.436L344.468 127.402L344.411 127.31L344.4 127.108L344.312 127.055L344.125 127.002H344.13ZM344.582 141.516L343.875 141.733L343.578 141.839L343.339 141.945L343.209 141.984L343.339 141.95L343.578 141.844L343.875 141.738L344.582 141.521V141.516ZM342.829 126.231L343.105 126.351L343.344 126.505L343.402 126.746L343.558 126.896L343.729 127.016L343.797 127.031L343.724 127.016L343.552 126.896L343.396 126.746L343.339 126.505L343.1 126.351L342.829 126.231ZM330.835 134.102L330.971 134.044L331.148 134.006L331.252 134.073L331.366 134.541L331.881 134.965L332.058 135.322L332.188 135.625L332.302 135.707L332.5 135.813L332.812 135.852L333.093 135.862L333.681 136.083L334.149 136.257L334.481 136.382L334.638 136.479L334.747 136.633L334.809 136.753L334.913 137.067L335.022 137.317L335.204 137.366L335.366 137.385L335.527 137.554L335.647 137.703L335.886 138.069L336.063 138.32L336.12 138.566L336.318 138.73L336.588 138.797L336.838 138.807L336.983 138.735L337.337 138.609L336.978 138.735L336.832 138.807L336.583 138.797L336.312 138.73L336.115 138.566L336.057 138.32L335.881 138.069L335.641 137.703L335.522 137.554L335.361 137.385L335.199 137.366L335.017 137.317L334.908 137.067L334.804 136.753L334.742 136.633L334.632 136.479L334.476 136.382L334.143 136.257L333.675 136.083L333.088 135.862L332.807 135.852L332.495 135.813L332.297 135.707L332.183 135.625L332.053 135.322L331.876 134.965L331.361 134.541L331.246 134.073L331.142 134.006L330.965 134.044L330.83 134.102H330.835ZM336.448 162.822L336.318 162.894L336.13 163.222L335.834 163.463L336.13 163.227L336.318 162.904L336.453 162.827L336.448 162.822ZM334.424 163.853L334.076 164.056L333.566 164.562L333.306 164.88L333.296 165.01L333.181 165.126L333.296 165.015L333.306 164.885L333.566 164.567L334.076 164.061L334.424 163.858V163.853ZM322.321 136.233L322.191 136.556L322.092 136.802L322.03 137.086L322.019 137.235L322.259 137.65L322.248 137.732L322.264 137.65L322.025 137.231L322.035 137.081L322.097 136.797L322.196 136.551L322.326 136.228L322.342 136.05L322.331 136.223L322.321 136.233ZM322.872 132.569L322.732 132.56L322.675 132.377L322.571 132.208L322.363 132.174L322.264 132.155L322.16 132.208L322.103 132.343L322.087 132.449L321.9 132.531L321.515 132.516L321.895 132.531L322.082 132.449L322.097 132.343L322.155 132.208L322.259 132.155L322.357 132.174L322.566 132.208L322.67 132.377L322.727 132.56L322.867 132.569H322.872ZM327.595 169.966L327.512 170.385L327.283 170.988L327.096 171.431L326.976 171.817L326.768 172.299L326.586 172.463L326.378 172.612L326.581 172.467L326.763 172.304L326.971 171.822L327.091 171.436L327.278 170.992L327.507 170.39L327.59 169.971L327.595 169.966ZM329.181 169.382L329.317 169.19L329.176 169.382H329.181ZM330.674 166.9L330.627 167.069L330.248 168.418L330.211 168.447L330.243 168.423L330.622 167.073L330.669 166.91L330.731 166.832L330.674 166.91V166.9ZM331.376 185.174L331.579 185.444L331.699 185.603L331.579 185.449L331.376 185.179V185.174ZM333.764 186.875L333.655 187.015L333.545 187.049L333.223 186.991L332.807 186.919L332.567 186.745L332.354 186.519L332.24 186.355L332.12 186.263L332.079 186.21L331.912 186.133L331.85 186.095L331.792 186.066L331.725 185.955L331.683 185.858L331.725 185.95L331.792 186.061L331.85 186.09L331.912 186.128L332.079 186.205L332.12 186.258L332.24 186.35L332.354 186.514L332.567 186.741L332.807 186.914L333.223 186.986L333.545 187.044L333.655 187.01L333.764 186.871V186.875ZM333.852 186.702L333.774 186.856L333.852 186.697V186.702ZM336.359 185.034L336.208 185.131L336 185.246L335.543 185.434L335.293 185.511H335.256L335.095 185.502L334.882 185.521L334.716 185.56L334.586 185.574L334.372 185.786L333.982 186.36L333.878 186.48L333.868 186.553L333.878 186.475L333.982 186.355L334.372 185.781L334.586 185.569L334.716 185.555L334.882 185.516L335.095 185.497L335.256 185.511H335.293L335.543 185.434L336 185.246L336.208 185.131L336.359 185.034ZM336.973 183.998L336.822 184.094L336.676 184.239L336.822 184.089L336.973 183.993L337.082 183.858L336.973 183.998ZM344.275 173.378L343.63 173.051L343.001 172.704L342.907 172.694L342.996 172.704L343.625 173.051L344.27 173.378H344.275ZM344.546 176.203L344.489 176.82L344.525 177.206L344.489 176.825L344.546 176.208V176.203ZM344.546 173.354L344.525 173.34L344.541 173.354H344.546ZM347.401 152.126L347.261 152.487L347.146 152.868V153.022L347.1 153.128L347.016 153.225L346.647 153.403L346.585 153.514V153.711L346.632 153.88L346.772 153.943L346.938 154.039L347.006 154.165V154.295L346.954 154.536L346.803 154.936L346.949 155.399L346.798 154.936L346.949 154.536L347.001 154.295V154.165L346.933 154.039L346.767 153.943L346.626 153.88L346.58 153.711V153.514L346.642 153.403L347.011 153.225L347.094 153.128L347.136 153.022V152.868L347.256 152.487L347.396 152.126L347.407 152L347.354 151.889L347.318 151.687L347.292 151.378V150.516L347.365 149.629L347.334 149.127L347.094 148.549L347.074 148.134L347.245 147.845L347.271 147.676L347.146 147.652L346.886 147.633L346.694 147.58L346.397 147.344L345.888 147.146L345.305 146.968L344.457 146.915L343.755 146.336L343.204 146.245L343.027 146.172L342.497 145.825L341.67 145.792L340.811 145.758L340.276 145.748L340.198 145.705L340.166 145.228V144.803H338.304L337.628 144.948L338.304 144.808H340.161L340.114 144.437L340.031 144.018L339.906 143.854L339.756 143.574L339.906 143.859L340.031 144.023L340.114 144.442L340.161 144.808V145.232L340.198 145.71L340.276 145.758L340.811 145.767L341.67 145.801L342.497 145.835L343.027 146.182L343.204 146.254L343.755 146.346L344.457 146.924L345.305 146.977L345.888 147.156L346.397 147.353L346.694 147.59L346.886 147.643L347.146 147.662L347.271 147.686L347.245 147.855L347.074 148.144L347.094 148.558L347.329 149.137L347.36 149.638L347.287 150.525V151.388L347.313 151.697L347.349 151.899L347.401 152.01L347.391 152.135L347.401 152.126ZM347.386 140.643L347.074 140.745L346.179 141.029L345.399 141.28L346.179 141.034L347.074 140.75L347.386 140.648L347.984 140.455L347.391 140.643H347.386ZM348.114 134.011L348.046 133.9L348.109 134.011H348.114ZM348.176 132.271L348.145 132.213L348.176 132.266L348.228 132.42L348.176 132.271ZM348.234 132.444L348.358 132.714L348.473 132.907L348.358 132.719L348.234 132.444ZM348.842 136.04L348.785 135.997H348.447L348.364 135.939L348.447 135.992H348.785L348.842 136.04ZM354.948 133.9L354.74 134.03L354.943 133.9H354.948ZM350.449 128.67L351.094 129.176L351.115 129.243L351.526 129.745L351.661 129.957V130.068L351.786 130.506L351.812 130.714L351.781 130.873V130.998L351.838 131.176L351.822 131.253L351.968 131.519L352.041 131.74L352.056 131.957L352.015 132.169L351.885 132.478L351.864 132.603L351.895 132.714L351.978 132.839L352.119 132.969L352.223 133.129L352.296 133.317L352.353 133.398L352.29 133.312L352.218 133.124L352.114 132.965L351.973 132.835L351.89 132.709L351.859 132.598L351.88 132.473L352.01 132.164L352.051 131.952L352.036 131.735L351.963 131.514L351.817 131.249L351.833 131.171L351.781 130.993V130.868L351.807 130.709L351.781 130.501L351.656 130.063V129.952L351.521 129.74L351.11 129.239L351.089 129.171L350.444 128.665L350.449 128.67ZM349.06 131.041L349.154 131.157L349.06 131.036V131.041ZM350.782 141.555L350.486 141.622L350.34 141.718H350.116L349.534 141.805L349.352 141.839L349.248 141.921L349.185 141.94L349.243 141.921L349.347 141.839L349.529 141.805L350.111 141.723H350.335L350.48 141.622L350.777 141.555L351.12 141.516L350.777 141.559L350.782 141.555ZM355.328 143.184L355.229 143.801L355.297 144.211L355.266 144.909L355.188 145.657L355.089 145.922L354.959 146.023L354.652 146.105L353.981 146.197L353.882 146.283L353.794 146.428L353.658 146.775L353.497 147.122L353.445 147.271L353.476 147.305L353.622 147.484L353.762 147.937L353.788 148.718L353.736 148.775L353.539 148.809L353.325 148.8L353.534 148.809L353.731 148.775L353.783 148.718L353.757 147.937L353.617 147.484L353.471 147.305L353.44 147.271L353.492 147.122L353.653 146.775L353.788 146.428L353.877 146.283L353.976 146.197L354.647 146.105L354.953 146.023L355.083 145.922L355.182 145.657L355.26 144.909L355.292 144.211L355.224 143.801L355.323 143.184L355.468 142.803L355.396 142.726L355.344 142.21L354.907 141.661L354.345 140.957L354.033 140.581L353.674 140.152L353.024 139.477L352.727 139.236L352.571 139.14L352.046 139.062L351.906 138.932L351.77 138.725L351.718 138.344L351.708 138.06L351.651 137.573L351.547 136.888L351.5 136.686L351.349 136.17L351.209 135.683L351.198 135.563L351.25 135.447L351.495 135.086L351.666 134.83L351.75 134.69L351.895 134.31L351.932 134.126L352.046 134.044L352.509 134.011H352.878L352.852 133.924L352.811 133.712L352.681 133.529L352.571 133.423L352.681 133.533L352.811 133.717L352.852 133.929L352.873 134.015H352.509L352.046 134.044L351.932 134.126L351.895 134.31L351.75 134.69L351.666 134.83L351.495 135.086L351.25 135.447L351.198 135.563L351.209 135.683L351.349 136.17L351.5 136.686L351.547 136.888L351.651 137.573L351.708 138.055L351.718 138.339L351.77 138.72L351.906 138.927L352.046 139.058L352.571 139.135L352.727 139.231L353.024 139.472L353.674 140.147L354.033 140.576L354.345 140.952L354.907 141.656L355.344 142.205L355.396 142.721L355.468 142.798L355.323 143.179L355.328 143.184ZM352.301 135.216L352.254 135.172L352.301 135.221V135.298L352.275 135.375L352.306 135.298V135.221L352.301 135.216ZM357.679 110.449L357.908 110.564L357.689 110.454L357.33 110.266L357.684 110.449H357.679ZM357.648 134.3L357.913 134.107L357.642 134.3H357.648ZM360.061 111.678L359.744 111.514L360.056 111.673L360.191 111.745L360.061 111.678ZM360.285 113.028L360.415 113.037H360.42L360.285 113.028ZM361.018 133.331L360.935 133.495L360.862 133.765L360.571 134.025L360.862 133.77L360.935 133.5L361.018 133.336L361.117 133.278L361.023 133.336L361.018 133.331ZM365.34 132.593L365.013 132.82L365.335 132.593H365.34ZM369.33 93.163H369.335L369.746 93.5101L369.923 93.6739L369.741 93.5052L369.335 93.1678L369.33 93.163ZM370.88 107.716L371.145 108.034L370.88 107.72V107.716ZM374.026 75.2361H374.297L374.536 75.3373L374.656 75.4241L374.827 75.453H375.046L375.394 74.9372L375.046 75.4482H374.827L374.656 75.4241L374.536 75.3373L374.297 75.2409H374.026V75.2361ZM389.125 83.2909H386.338L386.176 83.2138L385.412 82.9728L384.439 82.6691L383.232 82.2931L382.374 82.0231L381.459 81.7436L380.533 81.4592L379.805 81.2374L378.895 80.9578L378.104 80.7168L377.995 80.659L377.558 80.2878L376.986 79.801L376.877 79.7913L376.601 79.6901L376.356 79.425L376.102 79.0875L375.868 78.6682L375.764 78.3838L375.451 78.2633L375.301 78.0367L375.015 77.6993L374.817 77.5354L374.744 77.3908L374.65 77.0967L374.489 76.7738L374.333 76.5761L374.297 76.4894L374.307 76.4315L374.297 76.4846L374.333 76.5713L374.489 76.769L374.65 77.0919L374.744 77.386L374.817 77.5306L375.015 77.6945L375.301 78.0319L375.451 78.2584L375.764 78.379L375.868 78.6634L376.102 79.0827L376.356 79.4202L376.601 79.6853L376.877 79.7865L376.986 79.7961L377.558 80.283L377.995 80.6542L378.104 80.712L378.895 80.953L379.805 81.2326L380.533 81.4543L381.459 81.7387L382.374 82.0183L383.232 82.2883L384.439 82.6643L385.412 82.9679L386.176 83.2089L386.338 83.2861H389.125V83.2909Z" fill="white"/>
<path d="M331.023 118.335H337.883L337.8 118.104L337.691 117.848L337.613 117.631L337.457 117.27L337.441 117.231H330.929C330.882 117.438 330.857 117.814 331.023 118.34V118.335Z" fill="white"/>
<path d="M391.5 104.466C380.179 104.466 371 112.526 371 122.466C371 132.406 380.179 140.466 391.5 140.466C402.821 140.466 412 132.406 412 122.466C412 112.526 402.821 104.466 391.5 104.466ZM400.159 117.272H394.439C394.439 117.224 394.444 117.167 394.46 117.096C394.471 117.024 394.482 116.967 394.482 116.92C394.482 115.768 393.69 115.187 392.107 115.187C391.061 115.187 390.253 115.458 389.689 116.001C389.125 116.544 388.843 117.143 388.843 117.8C388.843 118.272 389.087 118.643 389.57 118.914C390.052 119.186 390.665 119.371 391.402 119.481C392.14 119.586 392.937 119.752 393.799 119.976C394.656 120.2 395.458 120.466 396.195 120.771C396.933 121.076 397.545 121.59 398.028 122.309C398.51 123.028 398.754 123.918 398.754 124.975C398.754 127.426 397.892 129.393 396.174 130.878C394.455 132.363 392.14 133.173 389.234 133.315L388.648 135.934H386.23L386.826 133.249C384.885 133.035 383.318 132.43 382.131 131.43C380.944 130.43 380.347 129.164 380.347 127.631C380.347 127.231 380.385 126.817 380.467 126.393H386.425C386.371 126.674 386.344 126.889 386.344 127.031C386.344 128.093 387.201 128.621 388.919 128.621C390.128 128.621 391.007 128.374 391.554 127.879C392.102 127.384 392.378 126.76 392.378 126.003C392.378 125.46 392.042 125.046 391.37 124.765C390.698 124.484 389.879 124.256 388.914 124.094C387.949 123.927 386.984 123.704 386.013 123.423C385.048 123.142 384.229 122.609 383.557 121.833C382.885 121.052 382.549 120.038 382.549 118.791C382.549 116.434 383.405 114.487 385.124 112.954C386.843 111.421 389.098 110.598 391.885 110.479L392.465 107.875H394.889L394.271 110.645C396.054 110.907 397.491 111.545 398.586 112.569C399.682 113.592 400.229 114.835 400.229 116.296C400.229 116.534 400.202 116.863 400.148 117.286L400.159 117.272Z" fill="white"/>
<path d="M126 101.466H144.103C149.477 101.466 153.837 105.258 153.837 109.933V176.929H204L184.723 200.466H126.005V101.466H126Z" fill="white"/>
<path d="M95 200.466V101.466H122V200.466" fill="white"/>
<path d="M255.186 113.583C251.201 118.988 244.606 122.217 237.553 122.217H199.33C196.051 122.217 193.388 124.726 193.388 127.822V133.523C193.388 136.619 196.046 139.128 199.33 139.128H256.306C271.6 139.128 284 150.82 284 165.246V174.348C284 188.769 271.6 200.466 256.306 200.466H192.976L209.576 178.126H249.515C252.795 178.126 255.458 175.617 255.458 172.521V166.72C255.458 163.624 252.8 161.115 249.515 161.115H190.457C176.397 161.115 165 150.367 165 137.105V125.475C165 112.214 176.397 101.466 190.457 101.466H264.11L255.18 113.587L255.186 113.583Z" fill="white"/>
<path d="M66.3833 169.524L32.6069 229.466H0L65.7909 112.419C69.575 105.682 77.031 101.466 85.1559 101.466H104L77.1331 150.249" fill="white"/>
<path d="M69.0497 176.466H95V200.466H57L69.0497 176.466Z" fill="white"/>
</svg>
